<svg xmlns="http://www.w3.org/2000/svg" version="1.1" xmlns:xlink="http://www.w3.org/1999/xlink" xmlns:svgjs="http://svgjs.dev/svgjs" width="1000" height="1000" viewBox="0 0 1000 1000"><rect width="1000" height="1000" fill="#ffffff"></rect><g transform="matrix(0.7,0,0,0.7,149.57575757575756,387.1607294984756)"><svg viewBox="0 0 396 128" data-background-color="#ffffff" preserveAspectRatio="xMidYMid meet" height="323" width="1000" xmlns="http://www.w3.org/2000/svg" xmlns:xlink="http://www.w3.org/1999/xlink"><defs></defs><g id="tight-bounds" transform="matrix(1,0,0,1,0.2400000000000091,-0.11929843345808422)"><svg viewBox="0 0 395.52 128.23859686691614" height="128.23859686691614" width="395.52"><g><svg viewBox="0 0 616.5135481890278 199.89085853864486" height="128.23859686691614" width="395.52"><g transform="matrix(1,0,0,1,0,27.626015905123865)"><svg viewBox="0 0 395.52 144.63882672839713" height="144.63882672839713" width="395.52"><g><svg viewBox="0 0 395.52 144.63882672839713" height="144.63882672839713" width="395.52"><g><svg viewBox="0 0 395.52 89.38939007092198" height="89.38939007092198" width="395.52"><g transform="matrix(1,0,0,1,0,0)"><svg width="395.52" viewBox="3.25 -35.0099983215332 154.88999938964844 35.0099983215332" height="89.38939007092198" data-palette-color="#ff0000"><path d="M17.26-28L10.25-28 10.25-13.99 17.26-13.99Q18.7-13.99 19.97-14.54 21.24-15.09 22.19-16.04 23.14-16.99 23.69-18.27 24.24-19.56 24.24-21L24.24-21Q24.24-22.44 23.69-23.72 23.14-25 22.19-25.95 21.24-26.9 19.97-27.45 18.7-28 17.26-28L17.26-28ZM10.25-7.01L10.25 0 3.25 0 3.25-35.01 17.26-35.01Q19.19-35.01 20.97-34.51 22.75-34.01 24.3-33.09 25.85-32.18 27.14-30.9 28.42-29.61 29.33-28.05 30.25-26.49 30.75-24.71 31.25-22.92 31.25-21L31.25-21Q31.25-18.12 30.15-15.56 29.05-13.01 27.15-11.11 25.24-9.2 22.69-8.11 20.14-7.01 17.26-7.01L17.26-7.01 10.25-7.01ZM41.94-13.99L55.95-13.99 55.95-21Q55.95-22.44 55.41-23.72 54.86-25 53.9-25.95 52.95-26.9 51.67-27.45 50.39-28 48.95-28L48.95-28Q47.51-28 46.23-27.45 44.94-26.9 43.99-25.95 43.04-25 42.49-23.72 41.94-22.44 41.94-21L41.94-21 41.94-13.99ZM62.96-21L62.96 0 55.95 0 55.95-7.01 41.94-7.01 41.94 0 34.96 0 34.96-21Q34.96-23.9 36.06-26.45 37.16-29 39.05-30.91 40.94-32.81 43.49-33.91 46.04-35.01 48.95-35.01L48.95-35.01Q51.85-35.01 54.4-33.91 56.96-32.81 58.86-30.91 60.76-29 61.86-26.45 62.96-23.9 62.96-21L62.96-21ZM84.39-10.96L84.39 0 77.41 0 77.41-10.96Q75.09-11.55 73.15-12.84 71.21-14.14 69.82-15.93 68.43-17.72 67.66-19.91 66.89-22.09 66.89-24.51L66.89-24.51 66.89-35.01 73.9-35.01 73.9-24.51Q73.9-23.07 74.45-21.79 75-20.51 75.95-19.56 76.9-18.6 78.18-18.05 79.46-17.5 80.9-17.5L80.9-17.5Q82.34-17.5 83.63-18.05 84.91-18.6 85.86-19.56 86.81-20.51 87.36-21.79 87.91-23.07 87.91-24.51L87.91-24.51 87.91-35.01 94.89-35.01 94.89-24.51Q94.89-22.09 94.12-19.91 93.35-17.72 91.96-15.93 90.57-14.14 88.64-12.84 86.71-11.55 84.39-10.96L84.39-10.96ZM127.65-35.01L127.65 0 120.16 0 106.66-23.05 106.66 0 99.65 0 99.65-35.01 107.15-35.01 120.65-11.94 120.65-35.01 127.65-35.01ZM158.14-7.01L158.14 0 134.15 0 134.15-35.01 158.14-35.01 158.14-28 141.15-28 141.15-21 152.65-21 152.65-13.99 141.15-13.99 141.15-7.01 158.14-7.01Z" opacity="1" transform="matrix(1,0,0,1,0,0)" fill="#000000" class="undefined-text-0" data-fill-palette-color="primary" id="text-0"></path></svg></g></svg></g><g transform="matrix(1,0,0,1,277.5539719623408,110.49207972130495)"><svg viewBox="0 0 117.96602803765914 34.146747007092195" height="34.146747007092195" width="117.96602803765914"><g transform="matrix(1,0,0,1,0,0)"><svg width="117.96602803765914" viewBox="2.25 -33.70000076293945 118.13999938964844 34.20000076293945" height="34.146747007092195" data-palette-color="#ca3433"><path d="M4.8-7.85Q4.75-7.6 4.75-7.15L4.75-7.15Q4.75-4.6 6.98-3.2 9.2-1.8 13.05-1.8L13.05-1.8Q16.5-1.8 18.4-3.18 20.3-4.55 20.3-6.8L20.3-6.8Q20.3-8.55 19.23-9.55 18.15-10.55 16.57-11.08 15-11.6 12.35-12.1L12.35-12.1Q9.3-12.7 7.45-13.33 5.6-13.95 4.3-15.3 3-16.65 3-19.05L3-19.05Q3-22.15 5.5-24.1 8-26.05 12.9-26.05L12.9-26.05Q16.1-26.05 18.2-25 20.3-23.95 21.28-22.38 22.25-20.8 22.25-19.15L22.25-19.15 22.2-18.45 19.7-18.45 19.7-19.1Q19.7-20.7 18.28-22.23 16.85-23.75 12.45-23.75L12.45-23.75Q8.2-23.75 6.88-22.3 5.55-20.85 5.55-19.15L5.55-19.15Q5.55-17.7 6.55-16.8 7.55-15.9 9.05-15.43 10.55-14.95 13.2-14.4L13.2-14.4Q16.25-13.75 18.2-13.1 20.15-12.45 21.5-11.05 22.85-9.65 22.85-7.3L22.85-7.3Q22.85-3.2 20.03-1.35 17.2 0.5 12.4 0.5L12.4 0.5Q8.75 0.5 6.48-0.65 4.2-1.8 3.23-3.45 2.25-5.1 2.25-6.6L2.25-6.6Q2.25-7.2 2.27-7.5 2.3-7.8 2.3-7.85L2.3-7.85 4.8-7.85ZM40.15-0.35Q39.5 0.05 38.57 0.28 37.65 0.5 36.75 0.5L36.75 0.5Q34.45 0.5 33.05-0.9 31.65-2.3 31.65-5.05L31.65-5.05 31.65-23.25 28.85-23.25 28.85-25.55 31.65-25.55 32.55-33.7 34.2-33.7 34.2-25.55 40.15-25.55 40.15-23.25 34.2-23.25 34.2-5.15Q34.2-3.15 34.97-2.48 35.75-1.8 37.05-1.8L37.05-1.8Q37.6-1.8 38.55-2.05 39.5-2.3 40.15-2.6L40.15-2.6 40.15-0.35ZM57.4 0.5Q54.25 0.5 51.8-1.03 49.35-2.55 47.97-5.45 46.6-8.35 46.6-12.4L46.6-12.4 46.6-13.15Q46.6-17.2 47.97-20.1 49.35-23 51.8-24.53 54.25-26.05 57.4-26.05L57.4-26.05Q60.55-26.05 63-24.53 65.45-23 66.82-20.1 68.2-17.2 68.2-13.15L68.2-13.15 68.2-12.4Q68.2-8.35 66.82-5.45 65.45-2.55 63-1.03 60.55 0.5 57.4 0.5L57.4 0.5ZM57.4-1.8Q61.05-1.8 63.35-4.45 65.65-7.1 65.65-12.1L65.65-12.1 65.65-13.45Q65.65-18.45 63.35-21.1 61.05-23.75 57.4-23.75L57.4-23.75Q53.75-23.75 51.45-21.1 49.15-18.45 49.15-13.45L49.15-13.45 49.15-12.1Q49.15-7.1 51.45-4.45 53.75-1.8 57.4-1.8L57.4-1.8ZM92.09-16.4L92.09-17.2Q92.09-19.7 90.64-21.73 89.19-23.75 85.84-23.75L85.84-23.75Q83.54-23.75 82.09-22.53 80.64-21.3 80.02-19.55 79.39-17.8 79.39-16.2L79.39-16.2 79.39 0 76.84 0 76.84-25.55 78.54-25.55 79.09-21.75Q79.09-21.95 79.87-23.05 80.64-24.15 82.27-25.1 83.89-26.05 86.34-26.05L86.34-26.05Q90.29-26.05 92.42-23.63 94.54-21.2 94.54-17.6L94.54-17.6Q94.54-17.1 94.49-16.8 94.44-16.5 94.44-16.4L94.44-16.4 92.09-16.4ZM120.39-9.45Q120.39-6.35 119.07-4.1 117.74-1.85 115.49-0.68 113.24 0.5 110.44 0.5L110.44 0.5Q107.29 0.5 104.87-1.03 102.44-2.55 101.09-5.45 99.74-8.35 99.74-12.4L99.74-12.4 99.74-13.15Q99.74-17.2 101.07-20.1 102.39-23 104.82-24.53 107.24-26.05 110.39-26.05L110.39-26.05Q113.24-26.05 115.52-24.83 117.79-23.6 119.09-21.28 120.39-18.95 120.39-15.7L120.39-15.7 120.39-12.5 102.29-12.5 102.29-12.1Q102.29-7.1 104.57-4.45 106.84-1.8 110.44-1.8L110.44-1.8Q113.64-1.8 115.77-3.75 117.89-5.7 117.89-9.45L117.89-9.45 120.39-9.45ZM110.39-23.75Q107.04-23.75 104.84-21.45 102.64-19.15 102.34-14.8L102.34-14.8 117.89-14.8 117.89-15.7Q117.89-19.6 115.77-21.68 113.64-23.75 110.39-23.75L110.39-23.75Z" opacity="1" transform="matrix(1,0,0,1,0,0)" fill="#000000" class="undefined-text-1" data-fill-palette-color="secondary" id="text-1"></path></svg></g></svg></g></svg></g></svg></g><g transform="matrix(1,0,0,1,416.62268965038294,0)"><svg viewBox="0 0 199.89085853864486 199.89085853864486" height="199.89085853864486" width="199.89085853864486"><g data-palette-color="#ed2647"><rect width="54.6368346672296" height="199.89085853864486" fill="#000000" stroke="transparent" data-fill-palette-color="accent" x="0" fill-opacity="1"></rect><rect width="54.6368346672296" height="199.89085853864486" fill="#000000" stroke="transparent" data-fill-palette-color="accent" x="66.63028617954829" fill-opacity="0.75"></rect><rect width="54.6368346672296" height="199.89085853864486" fill="#000000" stroke="transparent" data-fill-palette-color="accent" x="133.26057235909659" fill-opacity="0.5"></rect></g></svg></g></svg></g></svg><rect width="395.52" height="128.23859686691614" fill="none" stroke="none" visibility="hidden"></rect></g></svg></g></svg>