<?xml version="1.0" standalone="no"?>
<!DOCTYPE svg PUBLIC "-//W3C//DTD SVG 20010904//EN"
 "http://www.w3.org/TR/2001/REC-SVG-20010904/DTD/svg10.dtd">
<svg version="1.0" xmlns="http://www.w3.org/2000/svg"
 width="256.000000pt" height="256.000000pt" viewBox="0 0 256.000000 256.000000"
 preserveAspectRatio="xMidYMid meet">
<metadata>
Created by potrace 1.14, written by Peter Selinger 2001-2017
</metadata>
<g transform="translate(0.000000,256.000000) scale(0.100000,-0.100000)"
fill="#000000" stroke="none">
<path d="M200 1290 l0 -1150 38 -1 c20 0 160 -1 310 -2 235 -2 273 0 276 13 2
8 3 526 2 1150 l-1 1135 -312 3 -313 2 0 -1150z"/>
<path d="M968 2398 c-3 -31 -1 -37 11 -33 13 5 13 3 0 -12 -17 -20 -14 -53 4
-53 7 0 6 -4 -3 -10 -16 -10 -15 -101 2 -111 7 -4 6 -8 -2 -11 -11 -3 -15
-174 -9 -363 1 -5 0 -99 -1 -208 -1 -150 2 -203 12 -215 10 -12 10 -14 1 -8
-15 8 -15 5 -14 -83 1 -36 6 -68 12 -72 8 -5 8 -8 -1 -11 -11 -3 -15 -174 -9
-363 1 -5 0 -99 -1 -208 -1 -150 2 -203 12 -215 10 -12 10 -14 1 -8 -7 4 -13
2 -14 -3 -3 -41 -1 -80 4 -94 4 -10 2 -17 -3 -17 -5 0 -5 -12 0 -29 4 -15 5
-33 1 -39 -4 -6 -5 -29 -3 -51 l4 -40 309 0 309 1 1 126 c1 202 -2 256 -14
271 -9 12 -9 13 1 7 6 -4 12 -2 13 3 3 42 1 79 -4 89 -4 6 -3 13 2 16 5 3 7
15 4 26 -3 11 -10 17 -17 13 -6 -4 -5 1 3 10 16 21 16 228 -1 238 -7 5 -7 8 0
10 12 4 19 140 8 158 -4 6 -2 11 4 11 7 0 8 6 1 19 -6 10 -8 20 -6 23 3 3 6
170 4 228 0 8 0 104 1 213 1 150 -2 203 -12 215 -10 12 -10 14 0 8 7 -4 12 -2
13 6 3 41 -3 213 -7 220 -3 4 -1 8 5 8 6 0 6 11 1 29 -4 16 -6 32 -3 35 3 3 5
36 4 73 0 37 0 107 0 154 l0 85 -48 0 c-26 -1 -54 -5 -62 -10 -9 -6 -12 -5 -8
1 8 13 -212 12 -232 -1 -9 -6 -12 -5 -8 1 4 6 -41 10 -127 10 l-134 -1 -4 -38z
m327 2 c-3 -5 -12 -10 -18 -10 -7 0 -6 4 3 10 19 12 23 12 15 0z m40 0 c-3 -5
-12 -10 -18 -10 -7 0 -6 4 3 10 19 12 23 12 15 0z m40 0 c-3 -5 -12 -10 -18
-10 -7 0 -6 4 3 10 19 12 23 12 15 0z m-305 -20 c0 -5 -5 -10 -11 -10 -5 0 -7
5 -4 10 3 6 8 10 11 10 2 0 4 -4 4 -10z m40 6 c0 -3 -4 -8 -10 -11 -5 -3 -10
-1 -10 4 0 6 5 11 10 11 6 0 10 -2 10 -4z m40 0 c0 -3 -4 -8 -10 -11 -5 -3
-10 -1 -10 4 0 6 5 11 10 11 6 0 10 -2 10 -4z m35 -6 c3 -5 1 -10 -4 -10 -6 0
-11 5 -11 10 0 6 2 10 4 10 3 0 8 -4 11 -10z m145 -20 c0 -5 -5 -10 -11 -10
-5 0 -7 5 -4 10 3 6 8 10 11 10 2 0 4 -4 4 -10z m-145 -20 c3 -5 1 -10 -4 -10
-6 0 -11 5 -11 10 0 6 2 10 4 10 3 0 8 -4 11 -10z m155 -16 c0 -8 -19 -13 -24
-6 -3 5 1 9 9 9 8 0 15 -2 15 -3z m27 -9 c0 -8 -4 -12 -9 -9 -5 3 -6 10 -3 15
9 13 12 11 12 -6z m-42 -35 c3 -5 1 -10 -4 -10 -6 0 -11 5 -11 10 0 6 2 10 4
10 3 0 8 -4 11 -10z m39 -6 c3 -8 2 -12 -4 -9 -6 3 -10 10 -10 16 0 14 7 11
14 -7z m-344 -28 c0 -2 -8 -10 -17 -17 -16 -13 -17 -12 -4 4 13 16 21 21 21
13z m125 -26 c3 -5 1 -10 -4 -10 -6 0 -11 5 -11 10 0 6 2 10 4 10 3 0 8 -4 11
-10z m45 0 c0 -5 -5 -10 -11 -10 -5 0 -7 5 -4 10 3 6 8 10 11 10 2 0 4 -4 4
-10z m-45 -40 c3 -5 1 -10 -4 -10 -6 0 -11 5 -11 10 0 6 2 10 4 10 3 0 8 -4
11 -10z m45 0 c0 -5 -5 -10 -11 -10 -5 0 -7 5 -4 10 3 6 8 10 11 10 2 0 4 -4
4 -10z m40 6 c0 -3 -4 -8 -10 -11 -5 -3 -10 -1 -10 4 0 6 5 11 10 11 6 0 10
-2 10 -4z m-80 -46 c0 -5 -2 -10 -4 -10 -3 0 -8 5 -11 10 -3 6 -1 10 4 10 6 0
11 -4 11 -10z m160 0 c0 -5 -5 -10 -11 -10 -5 0 -7 5 -4 10 3 6 8 10 11 10 2
0 4 -4 4 -10z m40 0 c0 -5 -5 -10 -11 -10 -5 0 -7 5 -4 10 3 6 8 10 11 10 2 0
4 -4 4 -10z m-45 -40 c3 -5 1 -10 -4 -10 -6 0 -11 5 -11 10 0 6 2 10 4 10 3 0
8 -4 11 -10z m45 0 c0 -5 -5 -10 -11 -10 -5 0 -7 5 -4 10 3 6 8 10 11 10 2 0
4 -4 4 -10z m-349 -27 c13 -16 12 -17 -3 -4 -10 7 -18 15 -18 17 0 8 8 3 21
-13z m309 -13 c0 -5 -2 -10 -4 -10 -3 0 -8 5 -11 10 -3 6 -1 10 4 10 6 0 11
-4 11 -10z m35 0 c3 -5 1 -10 -4 -10 -6 0 -11 5 -11 10 0 6 2 10 4 10 3 0 8
-4 11 -10z m-214 -17 c13 -16 12 -17 -3 -4 -10 7 -18 15 -18 17 0 8 8 3 21
-13z m39 -3 c0 -5 -2 -10 -4 -10 -3 0 -8 5 -11 10 -3 6 -1 10 4 10 6 0 11 -4
11 -10z m280 1 c0 -6 -4 -12 -8 -15 -5 -3 -9 1 -9 9 0 8 4 15 9 15 4 0 8 -4 8
-9z m40 5 c0 -3 -4 -8 -10 -11 -5 -3 -10 -1 -10 4 0 6 5 11 10 11 6 0 10 -2
10 -4z m-360 -47 c0 -5 -4 -9 -8 -9 -5 0 -9 7 -9 15 0 8 4 12 9 9 4 -3 8 -9 8
-15z m-125 -7 c-3 -3 -11 0 -18 7 -9 10 -8 11 6 5 10 -3 15 -9 12 -12z m45 12
c0 -8 -19 -13 -24 -6 -3 5 1 9 9 9 8 0 15 -2 15 -3z m170 0 c0 -8 -19 -13 -24
-6 -3 5 1 9 9 9 8 0 15 -2 15 -3z m40 2 c0 -2 -8 -10 -17 -17 -16 -13 -17 -12
-4 4 13 16 21 21 21 13z m-213 -41 c0 -8 -4 -12 -9 -9 -5 3 -6 10 -3 15 9 13
12 11 12 -6z m43 1 c0 -3 -4 -8 -10 -11 -5 -3 -10 -1 -10 4 0 6 5 11 10 11 6
0 10 -2 10 -4z m40 -6 c0 -5 -4 -10 -10 -10 -5 0 -10 5 -10 10 0 6 5 10 10 10
6 0 10 -4 10 -10z m40 0 c0 -5 -5 -10 -11 -10 -5 0 -7 5 -4 10 3 6 8 10 11 10
2 0 4 -4 4 -10z m40 6 c0 -3 -4 -8 -10 -11 -5 -3 -10 -1 -10 4 0 6 5 11 10 11
6 0 10 -2 10 -4z m280 -6 c0 -5 -2 -10 -4 -10 -3 0 -8 5 -11 10 -3 6 -1 10 4
10 6 0 11 -4 11 -10z m-479 -37 c13 -16 12 -17 -3 -4 -17 13 -22 21 -14 21 2
0 10 -8 17 -17z m479 -4 c0 -5 -4 -9 -8 -9 -5 0 -9 7 -9 15 0 8 4 12 9 9 4 -3
8 -9 8 -15z m-360 7 c0 -2 -7 -7 -16 -10 -8 -3 -12 -2 -9 4 6 10 25 14 25 6z
m405 -6 c-3 -5 -12 -10 -18 -10 -7 0 -6 4 3 10 19 12 23 12 15 0z m40 0 c-3
-5 -12 -10 -18 -10 -7 0 -6 4 3 10 19 12 23 12 15 0z m-425 -14 c0 -3 -4 -8
-10 -11 -5 -3 -10 -1 -10 4 0 6 5 11 10 11 6 0 10 -2 10 -4z m40 0 c0 -3 -4
-8 -10 -11 -5 -3 -10 -1 -10 4 0 6 5 11 10 11 6 0 10 -2 10 -4z m120 -6 c0 -5
-5 -10 -11 -10 -5 0 -7 5 -4 10 3 6 8 10 11 10 2 0 4 -4 4 -10z m40 0 c0 -5
-5 -10 -11 -10 -5 0 -7 5 -4 10 3 6 8 10 11 10 2 0 4 -4 4 -10z m135 -20 c3
-5 1 -10 -4 -10 -6 0 -11 5 -11 10 0 6 2 10 4 10 3 0 8 -4 11 -10z m89 2 c3
-5 -1 -9 -9 -9 -8 0 -12 4 -9 9 3 4 7 8 9 8 2 0 6 -4 9 -8z m-429 -22 c3 -5 1
-10 -4 -10 -6 0 -11 5 -11 10 0 6 2 10 4 10 3 0 8 -4 11 -10z m45 6 c0 -3 -4
-8 -10 -11 -5 -3 -10 -1 -10 4 0 6 5 11 10 11 6 0 10 -2 10 -4z m120 0 c0 -3
-4 -8 -10 -11 -5 -3 -10 -1 -10 4 0 6 5 11 10 11 6 0 10 -2 10 -4z m-165 -46
c3 -5 1 -10 -4 -10 -6 0 -11 5 -11 10 0 6 2 10 4 10 3 0 8 -4 11 -10z m165 0
c0 -5 -2 -10 -4 -10 -3 0 -8 5 -11 10 -3 6 -1 10 4 10 6 0 11 -4 11 -10z m35
0 c3 -5 1 -10 -4 -10 -6 0 -11 5 -11 10 0 6 2 10 4 10 3 0 8 -4 11 -10z m205
0 c0 -5 -2 -10 -4 -10 -3 0 -8 5 -11 10 -3 6 -1 10 4 10 6 0 11 -4 11 -10z
m-460 -20 c0 -5 -5 -10 -11 -10 -5 0 -7 5 -4 10 3 6 8 10 11 10 2 0 4 -4 4
-10z m60 -20 c0 -5 -2 -10 -4 -10 -3 0 -8 5 -11 10 -3 6 -1 10 4 10 6 0 11 -4
11 -10z m195 0 c3 -5 1 -10 -4 -10 -6 0 -11 5 -11 10 0 6 2 10 4 10 3 0 8 -4
11 -10z m205 0 c0 -5 -5 -10 -11 -10 -5 0 -7 5 -4 10 3 6 8 10 11 10 2 0 4 -4
4 -10z m-455 -19 c-9 -8 -36 -10 -30 -2 2 4 11 8 20 8 8 0 13 -3 10 -6z m353
-46 c-3 -3 -9 2 -12 12 -6 14 -5 15 5 6 7 -7 10 -15 7 -18z m42 5 c0 -5 -5
-10 -11 -10 -5 0 -7 5 -4 10 3 6 8 10 11 10 2 0 4 -4 4 -10z m35 0 c3 -5 1
-10 -4 -10 -6 0 -11 5 -11 10 0 6 2 10 4 10 3 0 8 -4 11 -10z m-520 -9 c3 -5
2 -12 -3 -15 -5 -3 -9 1 -9 9 0 17 3 19 12 6z m443 -36 c-3 -3 -9 2 -12 12 -6
14 -5 15 5 6 7 -7 10 -15 7 -18z m123 8 c13 -16 12 -17 -3 -4 -10 7 -18 15
-18 17 0 8 8 3 21 -13z m-37 -1 c3 -5 -1 -9 -9 -9 -8 0 -12 4 -9 9 3 4 7 8 9
8 2 0 6 -4 9 -8z m-464 -22 c0 -5 -5 -10 -11 -10 -5 0 -7 5 -4 10 3 6 8 10 11
10 2 0 4 -4 4 -10z m40 0 c0 -5 -5 -10 -11 -10 -5 0 -7 5 -4 10 3 6 8 10 11
10 2 0 4 -4 4 -10z m175 -9 c3 -5 2 -12 -3 -15 -5 -3 -9 1 -9 9 0 17 3 19 12
6z m-35 -11 c0 -5 -2 -10 -4 -10 -3 0 -8 5 -11 10 -3 6 -1 10 4 10 6 0 11 -4
11 -10z m80 0 c0 -5 -5 -10 -11 -10 -5 0 -7 5 -4 10 3 6 8 10 11 10 2 0 4 -4
4 -10z m-305 -20 c3 -5 1 -10 -4 -10 -6 0 -11 5 -11 10 0 6 2 10 4 10 3 0 8
-4 11 -10z m40 0 c3 -5 1 -10 -4 -10 -6 0 -11 5 -11 10 0 6 2 10 4 10 3 0 8
-4 11 -10z m179 -18 c3 -5 -1 -9 -9 -9 -8 0 -12 4 -9 9 3 4 7 8 9 8 2 0 6 -4
9 -8z m96 2 c0 -8 -19 -13 -24 -6 -3 5 1 9 9 9 8 0 15 -2 15 -3z m170 -24 c0
-5 -2 -10 -4 -10 -3 0 -8 5 -11 10 -3 6 -1 10 4 10 6 0 11 -4 11 -10z m40 0
c0 -5 -2 -10 -4 -10 -3 0 -8 5 -11 10 -3 6 -1 10 4 10 6 0 11 -4 11 -10z
m-300 -14 c0 -3 -4 -8 -10 -11 -5 -3 -10 -1 -10 4 0 6 5 11 10 11 6 0 10 -2
10 -4z m37 -11 c0 -8 -4 -12 -9 -9 -5 3 -6 10 -3 15 9 13 12 11 12 -6z m38 5
c3 -5 1 -10 -4 -10 -6 0 -11 5 -11 10 0 6 2 10 4 10 3 0 8 -4 11 -10z m145
-14 c0 -3 -4 -8 -10 -11 -5 -3 -10 -1 -10 4 0 6 5 11 10 11 6 0 10 -2 10 -4z
m40 0 c0 -3 -4 -8 -10 -11 -5 -3 -10 -1 -10 4 0 6 5 11 10 11 6 0 10 -2 10 -4z
m-509 -33 c13 -16 12 -17 -3 -4 -10 7 -18 15 -18 17 0 8 8 3 21 -13z m49 11
c0 -8 -19 -13 -24 -6 -3 5 1 9 9 9 8 0 15 -2 15 -3z m74 -10 c3 -8 2 -12 -4
-9 -6 3 -10 10 -10 16 0 14 7 11 14 -7z m443 -19 c0 -8 -4 -12 -9 -9 -5 3 -6
10 -3 15 9 13 12 11 12 -6z m-517 -15 c0 -5 -2 -10 -4 -10 -3 0 -8 5 -11 10
-3 6 -1 10 4 10 6 0 11 -4 11 -10z m40 6 c0 -3 -4 -8 -10 -11 -5 -3 -10 -1
-10 4 0 6 5 11 10 11 6 0 10 -2 10 -4z m34 -12 c3 -8 2 -12 -4 -9 -6 3 -10 10
-10 16 0 14 7 11 14 -7z m371 -33 c-9 -8 -36 -10 -30 -2 2 4 11 8 20 8 8 0 13
-3 10 -6z m-465 -15 c0 -3 -4 -8 -10 -11 -5 -3 -10 -1 -10 4 0 6 5 11 10 11 6
0 10 -2 10 -4z m200 -6 c0 -5 -2 -10 -4 -10 -3 0 -8 5 -11 10 -3 6 -1 10 4 10
6 0 11 -4 11 -10z m195 0 c3 -5 1 -10 -4 -10 -6 0 -11 5 -11 10 0 6 2 10 4 10
3 0 8 -4 11 -10z m65 -14 c0 -3 -4 -8 -10 -11 -5 -3 -10 -1 -10 4 0 6 5 11 10
11 6 0 10 -2 10 -4z m-465 -26 c3 -5 1 -10 -4 -10 -6 0 -11 5 -11 10 0 6 2 10
4 10 3 0 8 -4 11 -10z m205 0 c0 -5 -2 -10 -4 -10 -3 0 -8 5 -11 10 -3 6 -1
10 4 10 6 0 11 -4 11 -10z m35 0 c3 -5 1 -10 -4 -10 -6 0 -11 5 -11 10 0 6 2
10 4 10 3 0 8 -4 11 -10z m165 0 c0 -5 -2 -10 -4 -10 -3 0 -8 5 -11 10 -3 6
-1 10 4 10 6 0 11 -4 11 -10z m-160 -40 c0 -5 -5 -10 -11 -10 -5 0 -7 5 -4 10
3 6 8 10 11 10 2 0 4 -4 4 -10z m120 0 c0 -5 -5 -10 -11 -10 -5 0 -7 5 -4 10
3 6 8 10 11 10 2 0 4 -4 4 -10z m40 0 c0 -5 -2 -10 -4 -10 -3 0 -8 5 -11 10
-3 6 -1 10 4 10 6 0 11 -4 11 -10z m-420 -16 c0 -8 -19 -13 -24 -6 -3 5 1 9 9
9 8 0 15 -2 15 -3z m80 -4 c0 -5 -2 -10 -4 -10 -3 0 -8 5 -11 10 -3 6 -1 10 4
10 6 0 11 -4 11 -10z m140 -14 c0 -3 -4 -8 -10 -11 -5 -3 -10 -1 -10 4 0 6 5
11 10 11 6 0 10 -2 10 -4z m40 0 c0 -3 -4 -8 -10 -11 -5 -3 -10 -1 -10 4 0 6
5 11 10 11 6 0 10 -2 10 -4z m120 -6 c0 -5 -5 -10 -11 -10 -5 0 -7 5 -4 10 3
6 8 10 11 10 2 0 4 -4 4 -10z m40 0 c0 -5 -5 -10 -11 -10 -5 0 -7 5 -4 10 3 6
8 10 11 10 2 0 4 -4 4 -10z m-420 -19 c0 -6 -4 -12 -8 -15 -5 -3 -9 1 -9 9 0
8 4 15 9 15 4 0 8 -4 8 -9z m45 -1 c3 -6 -1 -7 -9 -4 -18 7 -21 14 -7 14 6 0
13 -4 16 -10z m40 0 c3 -6 -1 -7 -9 -4 -18 7 -21 14 -7 14 6 0 13 -4 16 -10z
m50 -20 c3 -5 1 -10 -4 -10 -6 0 -11 5 -11 10 0 6 2 10 4 10 3 0 8 -4 11 -10z
m45 0 c0 -5 -5 -10 -11 -10 -5 0 -7 5 -4 10 3 6 8 10 11 10 2 0 4 -4 4 -10z
m180 -4 c0 -2 -8 -10 -17 -17 -16 -13 -17 -12 -4 4 13 16 21 21 21 13z m-225
-36 c3 -5 1 -10 -4 -10 -6 0 -11 5 -11 10 0 6 2 10 4 10 3 0 8 -4 11 -10z m45
0 c0 -5 -5 -10 -11 -10 -5 0 -7 5 -4 10 3 6 8 10 11 10 2 0 4 -4 4 -10z m40 6
c0 -3 -4 -8 -10 -11 -5 -3 -10 -1 -10 4 0 6 5 11 10 11 6 0 10 -2 10 -4z m137
-21 c0 -8 -4 -12 -9 -9 -5 3 -6 10 -3 15 9 13 12 11 12 -6z m-37 -5 c0 -5 -5
-10 -11 -10 -5 0 -7 5 -4 10 3 6 8 10 11 10 2 0 4 -4 4 -10z m-180 -20 c0 -5
-2 -10 -4 -10 -3 0 -8 5 -11 10 -3 6 -1 10 4 10 6 0 11 -4 11 -10z m180 -14
c0 -3 -4 -8 -10 -11 -5 -3 -10 -1 -10 4 0 6 5 11 10 11 6 0 10 -2 10 -4z m80
-6 c0 -5 -2 -10 -4 -10 -3 0 -8 5 -11 10 -3 6 -1 10 4 10 6 0 11 -4 11 -10z
m-409 -47 c13 -16 12 -17 -3 -4 -10 7 -18 15 -18 17 0 8 8 3 21 -13z m304 -13
c3 -5 1 -10 -4 -10 -6 0 -11 5 -11 10 0 6 2 10 4 10 3 0 8 -4 11 -10z m45 0
c0 -5 -5 -10 -11 -10 -5 0 -7 5 -4 10 3 6 8 10 11 10 2 0 4 -4 4 -10z m-219
-17 c13 -16 12 -17 -3 -4 -10 7 -18 15 -18 17 0 8 8 3 21 -13z m39 -3 c0 -5
-2 -10 -4 -10 -3 0 -8 5 -11 10 -3 6 -1 10 4 10 6 0 11 -4 11 -10z m135 -20
c3 -5 1 -10 -4 -10 -6 0 -11 5 -11 10 0 6 2 10 4 10 3 0 8 -4 11 -10z m45 0
c0 -5 -5 -10 -11 -10 -5 0 -7 5 -4 10 3 6 8 10 11 10 2 0 4 -4 4 -10z m40 6
c0 -3 -4 -8 -10 -11 -5 -3 -10 -1 -10 4 0 6 5 11 10 11 6 0 10 -2 10 -4z m160
-6 c0 -5 -5 -10 -11 -10 -5 0 -7 5 -4 10 3 6 8 10 11 10 2 0 4 -4 4 -10z
m-420 -21 c0 -5 -4 -9 -8 -9 -5 0 -9 7 -9 15 0 8 4 12 9 9 4 -3 8 -9 8 -15z
m-125 -7 c-3 -3 -11 0 -18 7 -9 10 -8 11 6 5 10 -3 15 -9 12 -12z m45 12 c0
-8 -19 -13 -24 -6 -3 5 1 9 9 9 8 0 15 -2 15 -3z m170 0 c0 -8 -19 -13 -24 -6
-3 5 1 9 9 9 8 0 15 -2 15 -3z m40 2 c0 -2 -8 -10 -17 -17 -16 -13 -17 -12 -4
4 13 16 21 21 21 13z m290 -26 c0 -5 -2 -10 -4 -10 -3 0 -8 5 -11 10 -3 6 -1
10 4 10 6 0 11 -4 11 -10z m-503 -15 c0 -8 -4 -12 -9 -9 -5 3 -6 10 -3 15 9
13 12 11 12 -6z m43 1 c0 -3 -4 -8 -10 -11 -5 -3 -10 -1 -10 4 0 6 5 11 10 11
6 0 10 -2 10 -4z m40 -6 c0 -5 -4 -10 -10 -10 -5 0 -10 5 -10 10 0 6 5 10 10
10 6 0 10 -4 10 -10z m40 0 c0 -5 -5 -10 -11 -10 -5 0 -7 5 -4 10 3 6 8 10 11
10 2 0 4 -4 4 -10z m40 6 c0 -3 -4 -8 -10 -11 -5 -3 -10 -1 -10 4 0 6 5 11 10
11 6 0 10 -2 10 -4z m-199 -43 c13 -16 12 -17 -3 -4 -10 7 -18 15 -18 17 0 8
8 3 21 -13z m119 3 c0 -2 -7 -7 -16 -10 -8 -3 -12 -2 -9 4 6 10 25 14 25 6z
m20 -20 c0 -3 -4 -8 -10 -11 -5 -3 -10 -1 -10 4 0 6 5 11 10 11 6 0 10 -2 10
-4z m40 0 c0 -3 -4 -8 -10 -11 -5 -3 -10 -1 -10 4 0 6 5 11 10 11 6 0 10 -2
10 -4z m-45 -46 c3 -5 1 -10 -4 -10 -6 0 -11 5 -11 10 0 6 2 10 4 10 3 0 8 -4
11 -10z m45 6 c0 -3 -4 -8 -10 -11 -5 -3 -10 -1 -10 4 0 6 5 11 10 11 6 0 10
-2 10 -4z m135 -34 c-3 -3 -11 0 -18 7 -9 10 -8 11 6 5 10 -3 15 -9 12 -12z
m45 12 c0 -8 -19 -13 -24 -6 -3 5 1 9 9 9 8 0 15 -2 15 -3z m-225 -24 c3 -5 1
-10 -4 -10 -6 0 -11 5 -11 10 0 6 2 10 4 10 3 0 8 -4 11 -10z m-55 -20 c0 -5
-5 -10 -11 -10 -5 0 -7 5 -4 10 3 6 8 10 11 10 2 0 4 -4 4 -10z m235 0 c3 -5
1 -10 -4 -10 -6 0 -11 5 -11 10 0 6 2 10 4 10 3 0 8 -4 11 -10z m85 6 c0 -3
-4 -8 -10 -11 -5 -3 -10 -1 -10 4 0 6 5 11 10 11 6 0 10 -2 10 -4z m-260 -26
c0 -5 -2 -10 -4 -10 -3 0 -8 5 -11 10 -3 6 -1 10 4 10 6 0 11 -4 11 -10z m-55
-19 c-9 -8 -36 -10 -30 -2 2 4 11 8 20 8 8 0 13 -3 10 -6z m235 -1 c0 -5 -2
-10 -4 -10 -3 0 -8 5 -11 10 -3 6 -1 10 4 10 6 0 11 -4 11 -10z m60 -20 c0 -5
-5 -10 -11 -10 -5 0 -7 5 -4 10 3 6 8 10 11 10 2 0 4 -4 4 -10z m40 6 c0 -3
-4 -8 -10 -11 -5 -3 -10 -1 -10 4 0 6 5 11 10 11 6 0 10 -2 10 -4z m40 0 c0
-3 -4 -8 -10 -11 -5 -3 -10 -1 -10 4 0 6 5 11 10 11 6 0 10 -2 10 -4z m35 -6
c3 -5 1 -10 -4 -10 -6 0 -11 5 -11 10 0 6 2 10 4 10 3 0 8 -4 11 -10z m-500
-29 c3 -5 2 -12 -3 -15 -5 -3 -9 1 -9 9 0 17 3 19 12 6z m460 -11 c3 -5 1 -10
-4 -10 -6 0 -11 5 -11 10 0 6 2 10 4 10 3 0 8 -4 11 -10z m40 0 c3 -5 1 -10
-4 -10 -6 0 -11 5 -11 10 0 6 2 10 4 10 3 0 8 -4 11 -10z m-435 -40 c0 -5 -5
-10 -11 -10 -5 0 -7 5 -4 10 3 6 8 10 11 10 2 0 4 -4 4 -10z m40 0 c0 -5 -5
-10 -11 -10 -5 0 -7 5 -4 10 3 6 8 10 11 10 2 0 4 -4 4 -10z m140 -20 c0 -5
-2 -10 -4 -10 -3 0 -8 5 -11 10 -3 6 -1 10 4 10 6 0 11 -4 11 -10z m-225 -20
c3 -5 1 -10 -4 -10 -6 0 -11 5 -11 10 0 6 2 10 4 10 3 0 8 -4 11 -10z m40 0
c3 -5 1 -10 -4 -10 -6 0 -11 5 -11 10 0 6 2 10 4 10 3 0 8 -4 11 -10z m179
-18 c3 -5 -1 -9 -9 -9 -8 0 -12 4 -9 9 3 4 7 8 9 8 2 0 6 -4 9 -8z m321 -10
c-3 -3 -11 0 -18 7 -9 10 -8 11 6 5 10 -3 15 -9 12 -12z m-255 -12 c0 -5 -5
-10 -11 -10 -5 0 -7 5 -4 10 3 6 8 10 11 10 2 0 4 -4 4 -10z m40 0 c0 -5 -5
-10 -11 -10 -5 0 -7 5 -4 10 3 6 8 10 11 10 2 0 4 -4 4 -10z m-100 -14 c0 -3
-4 -8 -10 -11 -5 -3 -10 -1 -10 4 0 6 5 11 10 11 6 0 10 -2 10 -4z m235 -6 c3
-5 1 -10 -4 -10 -6 0 -11 5 -11 10 0 6 2 10 4 10 3 0 8 -4 11 -10z m89 2 c3
-5 -1 -9 -9 -9 -8 0 -12 4 -9 9 3 4 7 8 9 8 2 0 6 -4 9 -8z m-264 -16 c0 -3
-4 -8 -10 -11 -5 -3 -10 -1 -10 4 0 6 5 11 10 11 6 0 10 -2 10 -4z m-309 -33
c13 -16 12 -17 -3 -4 -10 7 -18 15 -18 17 0 8 8 3 21 -13z m49 11 c0 -8 -19
-13 -24 -6 -3 5 1 9 9 9 8 0 15 -2 15 -3z m74 -10 c3 -8 2 -12 -4 -9 -6 3 -10
10 -10 16 0 14 7 11 14 -7z m186 -14 c0 -5 -2 -10 -4 -10 -3 0 -8 5 -11 10 -3
6 -1 10 4 10 6 0 11 -4 11 -10z m35 0 c3 -5 1 -10 -4 -10 -6 0 -11 5 -11 10 0
6 2 10 4 10 3 0 8 -4 11 -10z m205 0 c0 -5 -2 -10 -4 -10 -3 0 -8 5 -11 10 -3
6 -1 10 4 10 6 0 11 -4 11 -10z m-500 -20 c0 -5 -2 -10 -4 -10 -3 0 -8 5 -11
10 -3 6 -1 10 4 10 6 0 11 -4 11 -10z m40 6 c0 -3 -4 -8 -10 -11 -5 -3 -10 -1
-10 4 0 6 5 11 10 11 6 0 10 -2 10 -4z m34 -12 c3 -8 2 -12 -4 -9 -6 3 -10 10
-10 16 0 14 7 11 14 -7z m221 -14 c3 -5 1 -10 -4 -10 -6 0 -11 5 -11 10 0 6 2
10 4 10 3 0 8 -4 11 -10z m205 0 c0 -5 -5 -10 -11 -10 -5 0 -7 5 -4 10 3 6 8
10 11 10 2 0 4 -4 4 -10z m-520 -34 c0 -3 -4 -8 -10 -11 -5 -3 -10 -1 -10 4 0
6 5 11 10 11 6 0 10 -2 10 -4z m200 -6 c0 -5 -2 -10 -4 -10 -3 0 -8 5 -11 10
-3 6 -1 10 4 10 6 0 11 -4 11 -10z m218 -25 c-3 -3 -9 2 -12 12 -6 14 -5 15 5
6 7 -7 10 -15 7 -18z m42 5 c0 -5 -5 -10 -11 -10 -5 0 -7 5 -4 10 3 6 8 10 11
10 2 0 4 -4 4 -10z m35 0 c3 -5 1 -10 -4 -10 -6 0 -11 5 -11 10 0 6 2 10 4 10
3 0 8 -4 11 -10z m-500 -20 c3 -5 1 -10 -4 -10 -6 0 -11 5 -11 10 0 6 2 10 4
10 3 0 8 -4 11 -10z m205 0 c0 -5 -2 -10 -4 -10 -3 0 -8 5 -11 10 -3 6 -1 10
4 10 6 0 11 -4 11 -10z m35 0 c3 -5 1 -10 -4 -10 -6 0 -11 5 -11 10 0 6 2 10
4 10 3 0 8 -4 11 -10z m183 -25 c-3 -3 -9 2 -12 12 -6 14 -5 15 5 6 7 -7 10
-15 7 -18z m123 8 c13 -16 12 -17 -3 -4 -17 13 -22 21 -14 21 2 0 10 -8 17
-17z m-37 -1 c3 -5 -1 -9 -9 -9 -8 0 -12 4 -9 9 3 4 7 8 9 8 2 0 6 -4 9 -8z
m-264 -22 c0 -5 -5 -10 -11 -10 -5 0 -7 5 -4 10 3 6 8 10 11 10 2 0 4 -4 4
-10z m-260 -16 c0 -8 -19 -13 -24 -6 -3 5 1 9 9 9 8 0 15 -2 15 -3z m80 -4 c0
-5 -2 -10 -4 -10 -3 0 -8 5 -11 10 -3 6 -1 10 4 10 6 0 11 -4 11 -10z m240 0
c0 -5 -5 -10 -11 -10 -5 0 -7 5 -4 10 3 6 8 10 11 10 2 0 4 -4 4 -10z m-100
-14 c0 -3 -4 -8 -10 -11 -5 -3 -10 -1 -10 4 0 6 5 11 10 11 6 0 10 -2 10 -4z
m40 0 c0 -3 -4 -8 -10 -11 -5 -3 -10 -1 -10 4 0 6 5 11 10 11 6 0 10 -2 10 -4z
m70 -22 c0 -8 -19 -13 -24 -6 -3 5 1 9 9 9 8 0 15 -2 15 -3z m-275 -24 c3 -5
1 -10 -4 -10 -6 0 -11 5 -11 10 0 6 2 10 4 10 3 0 8 -4 11 -10z m40 0 c3 -5 1
-10 -4 -10 -6 0 -11 5 -11 10 0 6 2 10 4 10 3 0 8 -4 11 -10z m405 0 c0 -5 -2
-10 -4 -10 -3 0 -8 5 -11 10 -3 6 -1 10 4 10 6 0 11 -4 11 -10z m40 0 c0 -5
-2 -10 -4 -10 -3 0 -8 5 -11 10 -3 6 -1 10 4 10 6 0 11 -4 11 -10z m-225 -20
c3 -5 1 -10 -4 -10 -6 0 -11 5 -11 10 0 6 2 10 4 10 3 0 8 -4 11 -10z m-260
-20 c3 -5 1 -10 -4 -10 -6 0 -11 5 -11 10 0 6 2 10 4 10 3 0 8 -4 11 -10z m45
0 c0 -5 -5 -10 -11 -10 -5 0 -7 5 -4 10 3 6 8 10 11 10 2 0 4 -4 4 -10z m360
6 c0 -3 -4 -8 -10 -11 -5 -3 -10 -1 -10 4 0 6 5 11 10 11 6 0 10 -2 10 -4z
m40 0 c0 -3 -4 -8 -10 -11 -5 -3 -10 -1 -10 4 0 6 5 11 10 11 6 0 10 -2 10 -4z
m-305 -25 c3 -5 2 -12 -3 -15 -5 -3 -9 1 -9 9 0 17 3 19 12 6z m-95 -15 c0 -3
-4 -8 -10 -11 -5 -3 -10 -1 -10 4 0 6 5 11 10 11 6 0 10 -2 10 -4z m457 -11
c0 -8 -4 -12 -9 -9 -5 3 -6 10 -3 15 9 13 12 11 12 -6z m-562 -15 c3 -5 1 -10
-4 -10 -6 0 -11 5 -11 10 0 6 2 10 4 10 3 0 8 -4 11 -10z m245 0 c0 -5 -2 -10
-4 -10 -3 0 -8 5 -11 10 -3 6 -1 10 4 10 6 0 11 -4 11 -10z m35 0 c3 -5 1 -10
-4 -10 -6 0 -11 5 -11 10 0 6 2 10 4 10 3 0 8 -4 11 -10z m210 -39 c-9 -8 -36
-10 -30 -2 2 4 11 8 20 8 8 0 13 -3 10 -6z"/>
<path d="M1770 2425 c-11 -13 -15 -13 -22 -3 -7 10 -9 10 -5 -2 2 -8 12 -13
22 -12 16 3 17 1 6 -11 -10 -13 -9 -17 5 -25 10 -6 13 -12 6 -16 -6 -3 -18 4
-27 16 l-16 23 4 -25 c2 -14 8 -23 12 -22 5 2 12 -4 17 -13 7 -12 13 -13 23
-5 10 8 13 5 13 -14 0 -24 -1 -24 -24 -9 -13 8 -24 11 -24 7 0 -5 -5 -2 -10 6
-7 12 -9 10 -8 -7 2 -16 7 -20 26 -17 20 4 21 2 10 -10 -7 -8 -17 -13 -22 -13
-5 1 -10 -4 -11 -11 -2 -7 -1 -8 2 -2 2 5 9 7 14 4 6 -3 5 -11 -2 -20 -11 -13
-2 -19 24 -15 10 1 9 -11 -3 -29 -5 -8 -10 -10 -10 -4 0 7 -6 14 -13 17 -7 3
-13 -3 -13 -13 0 -12 7 -16 24 -14 17 2 22 -2 18 -13 -3 -8 -6 -18 -6 -21 0
-4 -4 0 -10 8 -5 8 -12 11 -17 7 -4 -5 -1 -12 7 -17 13 -8 8 -14 -10 -12 -3 0
-6 -8 -6 -18 0 -12 5 -16 16 -12 11 4 10 0 -4 -16 -17 -20 -15 -26 6 -23 4 0
6 -8 5 -19 -1 -11 -7 -20 -14 -20 -17 0 -16 -15 2 -30 8 -7 12 -17 9 -22 -4
-6 -10 -5 -15 3 -6 10 -8 7 -6 -10 2 -13 11 -29 20 -36 23 -16 21 -25 -4 -25
-12 0 -19 -5 -16 -12 4 -14 21 -15 48 -4 10 5 16 2 16 -9 0 -9 -6 -14 -13 -11
-8 3 -18 -3 -24 -12 -8 -15 -11 -15 -20 -2 -8 12 -9 11 -7 -7 2 -11 9 -28 15
-36 8 -9 9 -18 3 -21 -5 -3 -12 -1 -14 4 -3 6 -4 5 -2 -2 1 -7 8 -12 15 -10 6
1 10 -3 7 -10 -2 -7 -11 -12 -18 -10 -8 2 -6 -5 6 -19 15 -16 16 -21 5 -17
-11 4 -16 0 -16 -13 0 -23 1 -23 19 -5 11 12 15 11 26 -6 11 -18 11 -20 -1
-15 -18 6 -45 -9 -35 -20 5 -4 12 -2 16 6 6 10 10 9 15 -4 9 -23 9 -24 -17
-21 -16 2 -23 -2 -23 -14 0 -12 7 -16 24 -14 16 2 22 -2 18 -11 -3 -9 0 -12 8
-9 7 3 13 -1 13 -8 0 -7 4 -20 7 -29 5 -10 2 -16 -9 -16 -9 0 -14 6 -11 12 2
7 -4 19 -15 29 -24 20 -36 21 -20 2 7 -9 8 -17 2 -20 -5 -3 -12 0 -15 6 -2 7
-4 2 -2 -11 1 -13 13 -30 27 -37 13 -7 21 -14 17 -15 -24 -5 -34 -4 -41 6 -4
5 -5 -1 -4 -15 3 -15 11 -25 20 -25 25 0 28 -10 7 -23 -15 -9 -20 -9 -20 0 0
6 -3 8 -7 5 -3 -4 2 -16 12 -27 10 -11 15 -23 11 -27 -4 -4 -11 -1 -17 7 -7
12 -8 9 -6 -8 2 -13 8 -27 13 -30 15 -12 15 -32 -1 -32 -17 0 -20 -16 -5 -25
7 -4 6 -13 -1 -27 -6 -12 -7 -18 -1 -14 5 3 12 -1 16 -9 6 -18 -10 -30 -18
-13 -2 7 -4 2 -2 -11 1 -13 13 -30 27 -37 13 -7 21 -14 17 -15 -24 -5 -34 -4
-41 6 -4 5 -5 -1 -4 -15 2 -14 10 -26 18 -26 8 -1 18 -2 23 -3 6 0 1 -7 -10
-15 -14 -11 -21 -11 -27 -3 -6 8 -7 7 -4 -3 2 -8 10 -14 17 -12 7 2 10 -3 7
-12 -4 -9 1 -19 10 -24 10 -6 12 -12 5 -16 -6 -3 -18 4 -27 16 l-16 23 4 -25
c2 -14 7 -23 11 -20 4 3 12 -3 18 -13 7 -13 13 -15 23 -7 10 8 13 5 13 -14 0
-24 -1 -24 -24 -9 -13 8 -24 11 -24 7 0 -5 -5 -2 -10 6 -7 12 -9 10 -8 -7 2
-16 7 -20 26 -17 20 4 21 2 10 -10 -7 -8 -17 -13 -22 -13 -5 1 -10 -4 -12 -11
-1 -7 0 -8 3 -2 2 5 9 7 14 4 6 -3 5 -11 -2 -20 -11 -13 -2 -19 24 -15 10 1 9
-11 -3 -29 -5 -8 -10 -10 -10 -4 0 7 -6 14 -13 17 -7 3 -13 -3 -13 -13 0 -12
7 -16 24 -14 17 2 22 -2 18 -13 -3 -8 -6 -18 -6 -21 0 -4 -4 0 -10 8 -5 8 -12
11 -17 7 -4 -5 -1 -12 7 -17 13 -8 8 -14 -10 -12 -3 0 -6 -8 -6 -18 0 -12 5
-16 16 -12 11 4 10 0 -4 -16 -17 -20 -15 -26 6 -23 4 0 6 -8 5 -19 -1 -11 -7
-20 -14 -20 -17 0 -16 -15 2 -30 8 -7 12 -17 9 -22 -4 -6 -10 -5 -15 3 -6 10
-8 7 -6 -10 2 -13 11 -29 20 -36 23 -16 21 -25 -4 -25 -12 0 -19 -5 -16 -12 4
-14 21 -15 48 -4 10 5 16 2 16 -9 0 -9 -6 -14 -13 -11 -8 3 -18 -3 -24 -12 -8
-15 -11 -15 -20 -2 -8 12 -9 11 -7 -7 2 -11 9 -28 15 -36 8 -9 9 -18 3 -21 -5
-3 -12 -1 -14 4 -3 6 -4 5 -2 -2 1 -7 8 -12 15 -10 6 1 10 -3 7 -10 -2 -7 -11
-12 -18 -10 -8 2 -6 -5 6 -19 15 -16 16 -21 5 -17 -11 4 -16 0 -16 -13 0 -23
1 -23 19 -5 11 12 15 11 26 -6 11 -18 11 -20 -1 -15 -18 6 -45 -9 -35 -20 5
-4 12 -2 16 6 6 10 10 9 15 -4 9 -23 9 -24 -17 -21 -16 2 -23 -2 -23 -14 0
-12 7 -16 24 -14 16 2 22 -2 18 -11 -3 -9 0 -12 8 -9 7 3 13 -1 13 -8 0 -7 4
-20 7 -29 5 -10 2 -16 -9 -16 -9 0 -14 6 -11 12 2 7 -4 19 -15 29 -24 20 -36
21 -20 2 7 -9 8 -17 2 -20 -5 -3 -12 0 -15 6 -2 7 -4 2 -2 -11 1 -13 13 -30
27 -37 13 -7 21 -14 17 -15 -5 -1 -12 -3 -18 -4 -5 -1 -15 -3 -21 -4 -15 -2
-5 -26 12 -27 8 -1 18 -2 23 -3 6 0 1 -7 -10 -15 -14 -11 -21 -11 -27 -3 -6 8
-7 7 -4 -3 2 -8 9 -16 15 -16 25 -3 26 -6 7 -14 -16 -7 -17 -9 -3 -9 9 -1 21
6 26 15 6 10 14 14 22 9 9 -6 9 -10 -1 -17 -11 -8 -11 -9 1 -5 8 2 14 10 12
16 -2 13 24 15 32 2 4 -5 1 -12 -4 -14 -6 -3 -5 -4 2 -2 7 1 12 8 10 14 -2 13
24 15 32 2 4 -5 0 -12 -6 -14 -9 -4 -10 -6 -1 -6 6 -1 15 4 18 9 3 6 11 10 16
10 6 0 7 -6 3 -12 -6 -10 -3 -9 8 0 9 8 14 20 11 28 -4 10 0 12 11 8 12 -5 13
-11 5 -27 -9 -20 -9 -20 4 -4 15 17 33 24 23 8 -8 -13 18 -21 34 -11 8 5 21 5
30 0 9 -5 22 -5 30 0 8 5 21 5 31 -1 12 -6 22 -5 31 5 11 11 16 11 26 0 16
-17 35 -10 47 18 6 12 17 24 25 26 12 4 11 1 -2 -15 -22 -24 -22 -29 -2 -37
20 -8 45 11 38 28 -3 7 2 13 10 13 8 0 14 -9 13 -19 -1 -10 -6 -18 -11 -18 -5
0 -7 -3 -3 -6 3 -3 16 1 29 10 12 9 17 16 10 16 -6 0 -12 5 -12 11 0 5 4 8 9
4 6 -3 15 3 20 12 9 15 11 14 8 -10 -2 -16 -10 -33 -18 -38 -9 -5 -10 -9 -2
-9 17 0 28 21 29 58 1 24 -2 30 -9 23 -23 -23 -27 -10 -7 19 16 23 17 28 6 24
-12 -5 -15 -2 -10 10 3 9 11 13 16 10 6 -4 5 3 -2 15 -9 17 -9 26 1 37 10 12
9 13 -5 8 -12 -5 -15 -2 -10 10 3 9 11 13 16 10 6 -4 5 2 -1 14 -7 14 -8 23
-1 27 7 4 7 13 0 24 -6 12 -5 22 2 29 9 9 9 12 -1 12 -11 0 -11 3 -2 14 10 12
8 17 -8 26 -33 17 -44 45 -24 61 14 12 16 12 11 -3 -8 -21 16 -56 26 -39 4 6
3 18 -3 25 -7 9 -7 16 2 25 9 10 8 11 -6 5 -13 -5 -16 -2 -11 10 3 9 11 13 16
10 6 -4 5 3 -2 15 -9 17 -9 26 1 37 10 12 9 13 -5 8 -12 -5 -15 -2 -10 10 3 9
11 13 16 10 6 -4 5 2 -1 14 -7 14 -8 23 -1 27 7 4 7 13 0 24 -6 12 -6 21 1 28
6 6 1 14 -16 23 -14 7 -25 17 -25 22 0 5 4 7 9 3 6 -3 15 3 21 12 10 16 11 16
7 -4 -3 -13 -2 -25 2 -28 4 -2 8 12 8 31 0 24 -4 31 -11 24 -22 -22 -26 -8 -6
20 16 23 17 28 6 24 -12 -5 -15 -2 -10 10 3 9 11 13 16 10 6 -4 5 3 -2 15 -9
17 -9 26 1 37 10 12 9 13 -5 8 -12 -5 -15 -2 -10 10 3 9 11 13 16 10 6 -4 5 2
-1 14 -7 14 -8 23 -1 27 7 4 7 12 0 25 -7 13 -7 21 1 26 7 4 2 12 -13 23 -24
16 -24 16 -4 35 19 19 19 19 14 -2 -4 -12 -3 -24 1 -27 4 -2 8 12 8 31 0 24
-4 31 -11 24 -22 -22 -26 -8 -6 20 16 23 17 28 6 24 -12 -5 -15 -2 -10 10 3 9
11 13 16 10 6 -4 5 3 -2 15 -9 17 -9 26 1 37 10 12 9 13 -5 8 -12 -5 -15 -2
-10 10 3 9 11 13 16 10 6 -4 5 2 -1 14 -7 14 -8 23 -1 27 7 4 7 13 0 24 -6 12
-6 21 1 28 6 6 1 14 -16 23 -14 7 -25 17 -25 22 0 5 4 7 9 3 6 -3 15 3 21 12
10 16 11 16 7 -4 -3 -13 -2 -25 2 -28 4 -2 8 12 8 31 0 24 -4 31 -11 24 -22
-22 -26 -8 -6 20 16 23 17 28 6 24 -12 -5 -15 -2 -10 10 3 9 11 13 16 10 6 -4
5 3 -2 15 -9 17 -9 26 1 37 10 12 9 13 -5 8 -12 -5 -15 -2 -10 10 3 9 11 13
16 10 6 -4 5 2 -1 14 -7 14 -8 23 -1 27 7 4 7 13 0 24 -6 12 -5 22 2 29 9 9 9
12 -1 12 -11 0 -11 3 -2 14 10 12 8 17 -8 26 -33 17 -44 45 -24 61 14 12 16
12 11 -3 -8 -21 16 -56 26 -39 4 6 3 18 -3 25 -7 9 -7 16 2 25 9 10 8 11 -6 5
-13 -5 -16 -2 -11 10 3 9 11 13 16 10 6 -4 5 3 -2 15 -9 17 -9 26 1 37 10 12
9 13 -5 8 -12 -5 -15 -2 -10 10 3 9 11 13 16 10 6 -4 5 2 -1 14 -7 14 -8 23
-1 27 7 4 7 13 0 24 -6 12 -6 21 1 28 6 6 1 14 -16 23 -14 7 -25 17 -25 22 0
5 4 7 9 3 6 -3 15 3 21 12 10 16 11 16 7 -4 -3 -13 -2 -25 2 -28 4 -2 8 12 8
31 0 24 -4 31 -11 24 -22 -22 -26 -8 -6 20 16 23 17 28 6 24 -12 -5 -15 -2
-10 10 3 9 11 13 16 10 6 -4 5 3 -2 15 -9 17 -9 26 1 37 10 12 9 13 -5 8 -12
-5 -15 -2 -10 10 3 9 11 13 16 10 6 -4 5 2 -1 14 -7 14 -8 23 -1 27 7 4 7 13
0 24 -6 12 -5 22 2 29 9 9 9 12 -1 12 -11 0 -11 3 0 17 12 14 12 16 0 8 -11
-6 -13 -4 -7 10 5 15 4 16 -8 6 -11 -10 -20 -10 -37 -1 -12 7 -19 8 -15 2 3
-5 -1 -13 -10 -16 -12 -5 -15 -2 -10 9 4 11 2 14 -7 8 -22 -14 -49 -14 -41 -1
5 9 2 9 -9 -1 -14 -11 -17 -11 -17 0 0 10 -3 10 -12 1 -7 -7 -17 -8 -29 -2
-11 7 -20 7 -24 1 -3 -6 3 -15 14 -21 13 -7 22 -7 26 0 10 16 21 11 21 -10 0
-14 -5 -18 -17 -15 -10 3 -20 1 -24 -5 -3 -5 -14 -10 -23 -10 -13 0 -13 2 4
16 10 8 14 13 8 10 -6 -3 -16 6 -23 20 -9 22 -14 24 -26 14 -12 -10 -15 -10
-15 1 0 10 -3 10 -12 1 -7 -7 -17 -8 -29 -2 -24 13 -35 -5 -12 -19 10 -5 14
-13 10 -18 -5 -4 -19 4 -31 20 -17 21 -25 24 -34 15 -9 -9 -12 -9 -12 1 0 11
-3 11 -14 2 -11 -10 -20 -10 -37 -1 -12 7 -19 8 -15 2 3 -5 -1 -13 -10 -16
-12 -5 -15 -2 -10 10 5 14 4 15 -8 5 -11 -10 -20 -10 -37 -1 -12 7 -19 8 -15
2 3 -5 -1 -13 -10 -16 -12 -4 -15 -2 -10 9 7 19 2 19 -14 0z m203 -12 c-3 -10
-2 -15 2 -10 5 4 16 0 26 -9 19 -17 43 -10 36 11 -4 8 3 12 16 11 12 -1 27 2
34 6 8 7 10 3 6 -12 -4 -16 -8 -18 -19 -9 -8 6 -15 8 -15 3 -1 -5 -2 -15 -3
-23 0 -8 -7 -16 -15 -19 -9 -3 -11 0 -6 8 5 9 4 11 -4 6 -6 -4 -8 -12 -5 -18
5 -8 1 -9 -10 -5 -10 4 -15 3 -11 -3 3 -6 1 -10 -4 -10 -12 0 -15 26 -3 33 4
2 2 2 -5 1 -7 -2 -10 3 -7 10 3 7 -2 13 -10 13 -11 0 -13 -5 -5 -18 12 -24 12
-26 -6 -26 -9 0 -14 6 -11 14 3 7 -2 17 -12 22 -19 10 -144 7 -164 -4 -7 -5
-6 0 4 10 9 10 28 17 42 16 14 -1 32 -2 39 -2 6 -1 29 2 50 5 28 4 36 2 31 -7
-4 -7 2 -4 12 6 10 9 19 17 21 17 1 0 0 -8 -4 -17z m281 -2 c5 -1 1 -10 -9
-21 -22 -24 -34 -18 -14 7 13 16 12 17 -3 5 -13 -10 -17 -10 -22 0 -3 7 -3 3
-1 -8 4 -14 0 -24 -11 -28 -13 -5 -14 -9 -4 -21 7 -8 8 -15 2 -15 -14 0 -33
25 -25 33 3 4 1 7 -5 7 -15 0 -15 -13 -1 -27 7 -7 4 -10 -14 -10 -13 0 -24 5
-24 13 0 7 4 11 8 9 4 -3 9 2 13 10 3 8 15 14 28 12 14 -1 23 4 24 13 2 25 3
27 27 24 12 -1 26 -3 31 -3z m80 -13 c-4 -5 -14 -8 -24 -5 -9 2 -28 -2 -41 -9
-13 -7 -18 -13 -11 -14 7 0 11 -4 8 -9 -3 -4 -17 -7 -32 -5 -20 2 -24 0 -15
-9 15 -15 14 -30 -1 -21 -7 4 -4 -2 6 -14 11 -12 14 -22 9 -22 -14 0 -37 29
-30 37 4 3 2 12 -4 20 -9 9 -8 13 0 14 6 1 15 2 20 3 5 0 20 11 34 22 13 12
30 23 38 26 21 7 50 -3 43 -14z m-225 -10 c-1 -13 1 -32 4 -44 3 -13 0 -21 -9
-21 -9 0 -12 8 -10 22 3 14 -1 22 -10 22 -7 0 -10 -5 -7 -10 4 -6 1 -7 -8 -2
-11 6 -12 5 -1 -6 6 -7 12 -18 12 -23 0 -6 -7 -2 -15 8 -8 11 -15 14 -15 7 0
-7 -4 -9 -10 -6 -5 3 -7 0 -4 -8 3 -8 0 -18 -7 -23 -7 -4 -10 -3 -5 4 3 6 1
14 -5 18 -8 4 -9 3 -5 -4 7 -12 -35 -62 -52 -62 -5 0 -9 7 -9 15 0 9 6 14 14
11 7 -3 18 4 24 16 9 16 8 19 -2 13 -8 -6 -10 -4 -5 6 4 8 0 5 -8 -5 -9 -11
-17 -17 -17 -13 -1 4 -2 12 -3 18 0 6 -10 16 -21 22 -22 13 -33 47 -15 47 6 0
8 -5 4 -12 -5 -8 -2 -9 11 -4 15 5 16 4 5 -9 -12 -15 -4 -20 23 -16 4 0 7 -3
7 -8 0 -14 46 -6 75 13 17 11 24 23 21 33 -5 13 -4 14 9 3 12 -10 16 -9 21 4
9 23 14 20 13 -6z m-294 -8 c-8 -13 1 -13 27 1 16 9 19 8 15 -3 -2 -7 -10 -12
-16 -10 -6 1 -10 -3 -8 -9 1 -6 -4 -14 -12 -17 -9 -3 -11 0 -6 9 5 8 -2 5 -15
-6 l-23 -20 12 23 c6 12 8 22 4 22 -4 0 -1 5 7 10 19 12 23 12 15 0z m86 -2
c1 -4 2 -13 3 -19 0 -6 10 -16 21 -22 22 -13 31 -67 11 -67 -6 0 -3 -5 8 -11
14 -9 24 -7 47 10 15 11 30 17 34 12 3 -5 -4 -13 -16 -16 -12 -4 -18 -10 -13
-14 16 -11 15 -38 -1 -38 -11 0 -13 6 -9 20 4 14 2 18 -7 15 -8 -3 -12 -14
-11 -24 2 -10 1 -16 -4 -12 -4 4 -13 3 -21 -3 -9 -8 -13 -8 -13 -1 0 6 5 14
10 17 13 8 13 25 -1 25 -5 0 -7 -5 -3 -12 4 -7 3 -8 -5 -4 -6 4 -9 12 -6 17 4
5 1 9 -6 9 -7 0 -5 8 7 21 19 21 18 21 -9 45 -16 13 -33 22 -38 19 -5 -4 -9
-1 -9 5 0 6 -5 8 -11 4 -6 -3 -7 -9 -3 -13 5 -3 9 -13 9 -21 0 -8 6 -14 13
-12 6 1 12 -2 12 -8 0 -5 -6 -10 -14 -10 -8 0 -18 5 -21 10 -11 17 -21 11 -38
-25 -15 -32 -15 -35 1 -44 9 -6 13 -11 9 -11 -4 0 -3 -9 2 -19 8 -14 7 -22 -6
-32 -14 -12 -16 -12 -11 2 3 9 2 22 -4 30 -7 11 -8 9 -3 -6 5 -16 4 -17 -6 -8
-10 10 -9 15 1 28 12 15 4 20 -22 16 -14 -2 -9 11 10 25 16 13 16 14 -3 7 -17
-6 -18 -5 -5 9 8 9 20 15 25 15 6 -1 10 5 10 14 0 34 82 107 86 77z m394 2
c-8 -13 1 -13 26 0 18 10 19 8 14 -20 -4 -23 -2 -29 6 -24 8 5 9 3 3 -7 -4 -8
-10 -23 -11 -33 -4 -24 -11 -32 -19 -23 -4 4 -1 13 6 22 9 11 9 15 1 15 -7 0
-10 4 -7 9 3 4 0 16 -7 26 -13 16 -14 16 -30 0 -9 -9 -17 -13 -17 -8 0 5 5 14
12 21 7 7 8 12 3 12 -6 0 -3 5 5 10 19 12 23 12 15 0z m-37 -50 c10 -16 10
-20 0 -20 -9 0 -8 -3 2 -10 11 -7 11 -10 2 -10 -7 0 -10 -4 -7 -10 3 -5 -1
-10 -11 -10 -12 0 -14 3 -5 13 8 10 7 17 -1 25 -9 9 -9 12 1 12 11 0 11 3 1
15 -7 8 -8 15 -4 15 5 0 15 -9 22 -20z m35 3 c-4 -10 -2 -14 5 -9 7 4 9 -4 7
-24 -3 -18 1 -33 10 -37 13 -8 18 -24 16 -55 -1 -22 -21 -24 -21 -3 0 8 6 15
13 15 8 0 8 3 1 8 -6 4 -13 15 -17 24 -5 15 -10 13 -38 -13 -32 -30 -53 -33
-29 -4 8 10 9 15 1 15 -6 0 -11 -5 -11 -12 0 -6 -3 -8 -7 -4 -8 8 -9 13 -12
42 -1 10 -7 14 -16 10 -8 -3 -19 2 -24 12 -5 9 -13 13 -17 9 -5 -5 -2 -12 5
-16 8 -5 9 -11 3 -15 -5 -3 -12 0 -15 8 -3 8 -16 12 -31 11 -14 -2 -26 0 -26
5 0 4 -10 7 -22 6 -23 -2 -25 -7 -13 -39 5 -13 3 -16 -7 -12 -16 6 -17 28 -4
57 5 10 13 15 20 11 14 -9 58 -12 71 -5 24 15 47 6 79 -30 36 -40 50 -46 62
-26 5 7 3 8 -5 3 -10 -5 -11 -3 -4 11 5 11 9 26 8 34 -1 14 13 40 21 40 2 0 0
-7 -3 -17z m-368 -24 c4 -6 0 -18 -9 -28 -14 -15 -14 -19 0 -39 8 -12 14 -23
12 -23 -3 -2 -46 -9 -65 -11 -20 -2 -15 -16 8 -23 19 -6 20 -7 2 -20 -11 -8
-20 -10 -24 -4 -3 6 -13 -1 -23 -15 -9 -14 -21 -26 -27 -26 -7 0 -6 6 2 18 13
15 12 16 -3 3 -22 -17 -23 -31 -3 -31 8 0 15 -5 15 -11 0 -5 -4 -8 -9 -4 -5 3
-13 1 -16 -5 -9 -14 13 -40 29 -34 7 3 13 -2 13 -11 0 -18 -2 -18 -30 -4 -12
7 -19 8 -15 4 4 -4 3 -17 -3 -28 -9 -15 -8 -18 2 -12 8 5 10 4 5 -4 -6 -9 -11
-9 -23 0 -12 11 -12 14 0 20 19 11 16 55 -3 51 -11 -3 -10 1 3 15 12 14 14 22
6 30 -8 8 -5 15 10 25 12 8 18 19 14 24 -4 5 -1 3 7 -3 22 -20 53 12 39 39 -8
15 -8 19 0 14 6 -4 11 -3 11 2 0 5 7 9 15 10 8 1 22 3 31 4 12 1 12 5 -5 21
-18 19 -18 22 -4 32 12 9 13 16 5 31 -8 13 -11 14 -12 5 0 -8 -3 -12 -6 -8 -3
3 -3 10 1 16 7 12 39 -1 50 -20z m-57 -39 c18 -23 19 -28 5 -23 -9 4 -14 2
-10 -3 3 -6 -3 -11 -14 -11 -10 -1 -19 3 -19 8 0 6 -5 7 -11 3 -6 -3 -3 8 5
25 9 17 18 31 19 31 2 0 13 -13 25 -30z m206 24 c9 -3 16 -10 16 -16 0 -5 -5
-6 -12 -2 -7 4 -8 3 -4 -4 4 -7 5 -12 2 -12 -3 0 -10 9 -16 20 -12 22 -10 23
14 14z m60 -15 c-6 -10 28 -21 35 -12 9 12 33 15 26 3 -3 -5 -1 -10 5 -10 7 0
6 -5 -2 -14 -13 -14 -33 -12 -24 3 3 3 -4 7 -15 7 -19 0 -19 -1 -3 -13 13 -10
14 -13 3 -13 -19 1 -58 30 -39 30 7 0 11 3 7 6 -3 3 -11 3 -18 -2 -9 -5 -7
-11 6 -21 15 -10 15 -13 4 -13 -8 0 -21 6 -28 13 -10 9 -12 9 -7 0 5 -9 -4
-11 -30 -9 -28 2 -33 0 -23 -8 8 -6 15 -20 17 -31 l3 -20 -17 20 c-14 16 -16
17 -11 3 7 -19 -7 -25 -18 -8 -3 5 -12 7 -20 3 -8 -3 -15 -1 -15 5 0 5 10 9
23 8 18 -1 22 4 21 26 -1 23 2 25 21 18 15 -6 30 -3 49 9 14 10 24 20 22 22
-3 3 3 5 14 5 10 0 17 -3 14 -7z m163 -61 c-18 -11 -29 2 -16 18 10 12 14 12
20 2 4 -7 3 -16 -4 -20z m-53 -9 c5 8 13 8 27 1 10 -6 19 -8 19 -5 0 3 10 -5
21 -16 17 -17 20 -26 11 -39 -8 -13 -7 -21 1 -30 9 -10 9 -11 0 -6 -22 12 -26
-17 -5 -33 16 -12 20 -23 16 -44 -3 -21 -1 -27 7 -21 8 5 9 3 3 -7 -4 -8 -10
-23 -11 -33 -4 -24 -11 -32 -19 -23 -4 4 -1 13 6 22 10 12 10 15 0 15 -8 0
-10 3 -7 6 11 11 -12 44 -26 38 -8 -3 -14 2 -14 11 0 19 7 19 37 -2 21 -15 23
-15 12 -1 -10 13 -10 17 0 21 8 4 7 6 -4 6 -10 1 -18 7 -19 14 0 10 -2 10 -6
0 -7 -20 -19 -15 -20 7 -1 11 2 18 7 15 5 -3 12 0 16 6 4 8 3 9 -4 5 -7 -4
-12 -2 -12 3 0 6 9 16 20 23 11 7 20 16 20 20 0 12 -53 36 -72 33 -9 -2 -22 3
-29 11 -6 8 -15 11 -20 8 -11 -6 -12 10 -2 20 4 4 15 -3 24 -15 11 -15 18 -18
23 -10z m-140 5 c3 -8 -4 -11 -19 -9 -15 1 -22 -2 -18 -8 3 -6 1 -7 -5 -3 -6
4 -9 12 -6 19 6 16 42 17 48 1z m36 7 c0 -5 -9 -19 -21 -32 -20 -24 -20 -24
-9 -1 6 12 7 22 3 22 -4 0 -1 5 7 10 19 12 20 12 20 1z m50 -23 c0 -5 -5 -8
-11 -8 -5 0 -8 4 -5 8 3 5 -1 9 -9 9 -8 0 -12 -4 -9 -8 2 -4 -4 -12 -13 -18
-11 -6 -13 -11 -5 -11 7 0 10 -5 6 -11 -4 -8 -9 -7 -16 2 -10 15 -8 5 6 -32 5
-10 1 -16 -9 -16 -9 0 -14 6 -11 14 8 19 -30 36 -54 23 -10 -6 -17 -16 -14
-23 3 -8 -2 -14 -11 -14 -9 0 -14 6 -10 14 3 7 8 21 11 31 5 14 4 15 -5 2 -6
-8 -11 -10 -11 -5 0 6 -4 4 -9 -4 -5 -8 -22 -16 -38 -18 -26 -4 -27 -3 -9 10
19 14 14 43 -6 31 -7 -4 -8 -2 -4 5 4 6 -9 2 -30 -9 -29 -17 -35 -18 -31 -6 4
9 -1 19 -10 24 -14 8 -13 10 1 15 10 4 14 3 11 -2 -6 -11 34 -9 52 2 6 4 14 0
17 -9 3 -9 13 -14 21 -10 8 3 17 1 20 -5 7 -11 44 -6 75 11 15 8 20 8 16 1 -4
-6 -4 -16 0 -22 4 -7 19 2 41 26 28 30 37 35 44 24 5 -8 9 -17 9 -21z m53 -11
c4 3 7 1 7 -5 0 -7 -7 -12 -15 -12 -19 0 -19 -19 0 -26 8 -4 12 -10 9 -16 -9
-15 -36 14 -31 34 3 10 0 21 -5 25 -7 4 -8 1 -3 -7 5 -8 4 -11 -3 -6 -19 12
-26 -17 -7 -31 16 -11 17 -13 3 -13 -9 0 -20 5 -23 10 -8 13 -25 13 -25 -1 0
-5 5 -7 11 -3 7 4 7 -2 -1 -17 -18 -34 -18 -34 -15 3 2 18 4 34 5 36 1 1 3 8
4 15 1 6 9 11 19 9 9 -2 20 4 23 13 6 14 8 14 24 0 9 -8 20 -12 23 -8z m41
-50 c-14 -16 -23 -36 -20 -44 3 -8 1 -11 -4 -8 -6 3 -10 1 -10 -4 0 -6 5 -11
12 -11 6 0 9 -2 6 -5 -3 -3 -12 -3 -21 1 -13 5 -14 10 -6 26 9 16 8 19 -3 13
-7 -3 -3 2 10 14 22 19 22 20 3 26 -19 6 -19 7 -3 24 13 13 22 15 39 8 l22
-10 -25 -30z m-348 -5 c-12 -12 -19 -13 -27 -5 -13 13 -4 33 14 33 7 0 6 -4
-3 -10 -10 -7 -11 -10 -2 -10 7 0 16 8 19 17 5 12 8 13 11 4 2 -7 -3 -20 -12
-29z m-2 -13 c9 7 16 10 17 5 0 -5 2 -17 4 -26 2 -11 -2 -15 -11 -11 -8 3 -11
9 -8 14 3 5 -3 6 -12 2 -11 -4 -13 -8 -6 -11 17 -5 15 -19 -3 -19 -8 0 -16 6
-19 14 -3 7 -1 13 5 13 6 0 7 5 3 11 -3 6 -9 7 -13 3 -3 -5 -15 -11 -25 -12
-16 -3 -18 -1 -8 11 6 7 9 17 6 20 -3 3 -3 11 1 17 5 8 15 3 30 -16 20 -25 25
-27 39 -15z m-85 -5 c-11 -14 5 -29 20 -19 6 3 15 -3 20 -14 14 -26 14 -34 -1
-25 -10 6 -9 3 0 -9 12 -14 11 -16 -7 -14 -12 1 -20 6 -17 12 7 16 13 41 9 32
-3 -4 -8 -5 -13 -2 -4 2 -7 -7 -7 -21 0 -13 -2 -26 -4 -27 -2 -1 -16 -12 -30
-25 l-26 -23 0 25 c0 19 4 25 18 23 10 -1 18 2 18 7 -1 5 5 13 13 17 13 9 11
10 -31 13 -8 1 -16 8 -18 16 -4 13 -3 13 6 0 11 -16 11 -17 15 26 1 6 8 19 15
28 11 13 16 14 22 4 4 -7 3 -18 -2 -24z m168 -1 c1 -22 -1 -24 -8 -10 -6 9 -7
22 -4 27 9 14 10 13 12 -17z m78 7 c-13 -12 -17 -12 -30 0 -12 13 -11 15 15
15 26 0 28 -2 15 -15z m-71 -29 c14 19 103 21 110 3 3 -8 1 -16 -3 -19 -5 -3
-11 2 -15 10 -3 8 -11 15 -18 15 -10 0 -10 -2 1 -9 9 -6 10 -11 2 -15 -6 -4
-11 -2 -11 5 0 9 -3 9 -14 0 -9 -7 -17 -8 -20 -2 -3 5 0 12 6 14 10 4 10 6 0
6 -7 1 -15 -6 -18 -14 -4 -8 -11 -12 -18 -8 -7 5 -7 2 1 -8 8 -9 9 -20 3 -29
-6 -8 -10 -12 -11 -7 -1 4 -3 12 -4 17 -1 6 -3 16 -4 23 -1 8 -5 8 -14 -3 -14
-18 -70 -23 -64 -6 2 6 16 10 30 10 16 -1 24 3 20 9 -4 6 -1 7 7 2 8 -5 11 -4
6 3 -4 6 -12 9 -20 6 -7 -3 -13 2 -13 10 0 8 4 13 9 10 4 -3 8 1 8 8 1 7 8 0
17 -16 13 -25 17 -27 27 -15z m165 23 c4 3 8 -1 8 -9 0 -9 -5 -14 -11 -13 -6
2 -12 -1 -13 -6 -1 -5 -7 -12 -15 -17 -7 -5 -14 -13 -14 -19 -1 -5 -2 -13 -3
-17 0 -4 -8 2 -17 13 -8 10 -12 13 -8 5 5 -9 3 -12 -4 -7 -7 4 -12 1 -12 -6 0
-9 -3 -9 -10 2 -9 13 -11 13 -20 0 -7 -11 -10 -11 -10 -2 0 7 -4 11 -8 8 -5
-3 -9 1 -9 8 0 9 14 14 41 14 62 0 63 0 77 34 7 17 15 26 17 20 2 -7 7 -10 11
-8z m37 -22 c3 -39 3 -42 12 -41 20 3 28 -3 29 -23 2 -20 1 -21 -8 -5 -6 9
-14 15 -19 12 -4 -3 -10 1 -13 8 -8 22 -44 13 -68 -17 -15 -19 -24 -24 -29
-16 -4 7 -13 9 -19 6 -6 -4 -9 -12 -6 -17 11 -16 -7 -10 -22 9 -8 11 -12 12
-11 3 2 -7 -3 -16 -11 -19 -8 -2 -11 0 -7 6 3 6 1 14 -5 18 -6 3 -14 1 -18 -5
-5 -8 -13 -5 -26 9 -15 17 -16 23 -5 33 9 8 11 9 6 0 -10 -18 13 -27 74 -28
57 0 84 10 73 28 -3 6 -1 7 5 3 11 -7 17 6 13 28 -1 5 5 3 14 -4 13 -11 18
-11 28 0 8 9 8 11 0 6 -7 -4 -10 0 -8 11 2 10 4 22 4 27 2 20 16 -7 17 -32z
m-296 -52 c0 -5 -6 -10 -12 -10 -10 0 -10 -2 0 -9 10 -6 10 -10 -2 -20 -10 -8
-16 -9 -21 -1 -3 5 -2 10 4 10 5 0 8 9 6 20 -2 13 2 20 11 20 8 0 14 -4 14
-10z m45 2 c-2 -2 8 -14 23 -27 20 -17 30 -21 40 -12 10 8 12 7 10 -4 -2 -9 7
-14 32 -14 25 0 34 5 32 14 -2 11 0 12 10 4 10 -9 20 -5 40 12 15 13 25 25 23
27 -2 2 4 4 15 4 10 0 16 -4 14 -8 -5 -7 10 -11 21 -5 2 1 11 -7 19 -18 15
-20 3 -40 -17 -28 -5 3 -3 9 4 14 10 6 10 9 2 9 -6 0 -15 -4 -18 -10 -3 -5
-14 -10 -23 -10 -14 0 -13 2 3 13 12 10 14 16 7 21 -14 9 -34 -2 -27 -14 3 -5
1 -11 -5 -15 -5 -3 -10 0 -10 7 0 7 -10 1 -21 -14 -20 -27 -48 -40 -33 -16 4
7 3 8 -5 4 -6 -4 -9 -11 -7 -15 3 -4 -8 -8 -24 -8 -16 0 -27 4 -24 8 2 4 -1
11 -7 15 -8 4 -9 3 -5 -4 4 -7 3 -12 -3 -12 -5 0 -15 8 -20 18 -6 9 -11 11
-11 5 0 -7 -5 -13 -11 -13 -5 0 -8 4 -5 9 3 5 -1 12 -9 15 -8 3 -14 11 -13 17
2 6 -4 14 -12 16 -13 4 -13 3 0 -6 13 -10 13 -11 0 -11 -13 0 -13 -1 0 -11 12
-9 11 -10 -8 -6 -14 3 -20 1 -15 -5 4 -7 1 -8 -8 -4 -8 4 -5 0 5 -8 11 -9 18
-16 15 -17 -2 0 -17 -2 -32 -4 l-28 -4 25 33 c14 19 22 36 19 40 -4 3 -1 6 6
6 7 0 10 4 7 8 -2 4 4 8 14 8 11 0 17 -2 15 -4z m-97 -25 c-1 -2 3 -11 11 -20
10 -13 11 -20 2 -31 -14 -16 2 -32 20 -20 10 6 29 -12 29 -28 0 -11 -23 -5
-32 7 -5 6 -11 5 -17 -4 -8 -12 -12 -11 -27 4 -17 17 -17 17 6 11 20 -6 19 -4
-7 13 -18 11 -33 26 -33 33 -1 8 -7 5 -15 -6 -8 -10 -12 -22 -10 -27 3 -4 -1
-10 -7 -12 -8 -3 -6 -6 5 -6 10 -1 16 -5 13 -10 -4 -5 0 -11 6 -14 7 -2 1 -4
-13 -3 -21 1 -25 6 -23 24 2 16 -2 22 -11 18 -19 -7 -27 5 -14 21 14 17 33 17
23 1 -5 -7 9 2 30 20 20 18 41 30 47 27 5 -4 9 -1 9 6 0 7 3 10 6 7 3 -4 4 -8
2 -11z m415 -4 c-4 -10 -2 -14 5 -9 7 4 9 -4 7 -24 -3 -20 1 -33 12 -38 21
-12 20 -58 -3 -83 -17 -19 -24 -36 -26 -66 -2 -16 -1 -16 -33 -1 -18 8 -22 14
-13 20 18 11 30 10 23 -2 -10 -16 1 -11 16 7 10 11 10 14 2 9 -24 -14 -13 13
11 29 17 11 23 24 21 44 -4 43 -16 58 -29 35 -12 -20 -36 -30 -36 -15 0 5 7
11 15 15 8 3 12 12 9 21 -4 10 -2 15 6 13 7 -2 15 4 17 12 4 12 3 12 -5 2 -5
-8 -12 -13 -16 -13 -19 3 -27 0 -21 -8 3 -6 -3 -9 -14 -8 -11 0 -17 5 -14 11
3 5 1 6 -5 2 -8 -5 -10 -2 -6 9 5 11 10 13 18 5 9 -7 19 -5 32 5 10 8 15 15
10 15 -5 0 -3 7 4 15 16 20 21 19 13 -2z m-291 -48 c7 -1 22 -6 33 -12 31 -16
83 -9 110 17 14 13 25 19 25 13 0 -6 -3 -13 -7 -16 -5 -2 -3 -2 4 -1 6 2 14
-4 17 -12 5 -12 1 -14 -17 -9 -13 4 -17 3 -10 -2 7 -5 9 -14 4 -22 -7 -10 -11
-8 -16 9 l-7 23 -15 -24 c-8 -13 -12 -16 -9 -6 4 11 2 16 -5 12 -5 -4 -7 -16
-3 -27 4 -13 2 -18 -4 -14 -6 4 -15 -2 -21 -11 -8 -15 -10 -15 -11 -2 0 8 6
21 13 28 10 11 10 13 0 7 -7 -4 -13 -3 -13 3 0 5 6 12 13 14 9 4 9 6 -1 6 -7
1 -17 -10 -24 -24 -6 -13 -15 -22 -19 -19 -5 3 -4 14 2 26 7 12 7 18 1 14 -6
-3 -12 -1 -14 6 -3 7 -7 5 -11 -6 -4 -10 -3 -15 3 -11 6 3 10 2 10 -3 0 -6 -7
-13 -16 -16 -12 -5 -14 -9 -5 -20 9 -11 6 -13 -13 -13 -24 0 -24 1 -10 23 9
13 13 27 10 33 -3 5 0 12 6 15 7 3 3 3 -9 0 -19 -4 -22 -2 -17 13 5 14 4 15
-4 4 -6 -8 -9 -22 -7 -32 2 -10 -2 -22 -9 -28 -9 -8 -12 -4 -10 17 4 56 21 83
36 59 4 -7 13 -12 20 -12z m206 2 c2 -22 7 -42 15 -54 5 -7 4 -13 -2 -13 -5 0
-15 8 -20 18 -6 10 -11 12 -11 4 0 -7 -5 -10 -11 -6 -8 5 -6 10 5 16 12 7 14
14 6 28 -13 25 -13 30 3 24 8 -3 14 -10 15 -17z m-367 -25 c-22 -7 29 -41 57
-38 15 2 32 -3 38 -12 9 -12 13 -12 27 3 10 9 15 21 12 26 -4 5 -1 9 4 9 15 0
14 -12 -5 -38 -15 -22 -14 -24 16 -26 8 -1 15 -6 15 -13 0 -6 3 -15 8 -19 12
-13 8 -20 -13 -20 -14 0 -18 5 -15 17 4 11 -4 20 -24 29 -17 7 -36 18 -42 26
-6 8 -16 14 -22 14 -6 0 -1 -7 11 -16 12 -8 19 -20 16 -26 -4 -7 -10 -5 -16 5
-5 10 -15 14 -25 10 -11 -4 -14 -3 -9 5 4 7 -3 17 -18 24 -24 10 -30 20 -27
41 0 4 -4 7 -10 7 -5 0 -7 5 -4 10 5 8 12 7 22 -2 10 -8 11 -14 4 -16z m405
-26 c1 -14 -4 -27 -12 -30 -9 -3 -12 -11 -9 -17 4 -6 13 -8 21 -5 8 3 14 1 14
-5 0 -5 6 -4 14 3 12 11 12 14 0 21 -8 4 -14 13 -14 19 0 9 3 9 11 1 6 -6 18
-9 26 -6 27 11 8 -22 -35 -57 -38 -31 -40 -36 -25 -47 20 -15 5 -17 -17 -3
-12 8 -13 13 -3 29 18 29 -4 72 -35 66 -15 -2 -20 0 -16 8 3 7 -2 3 -10 -7
-12 -15 -13 -23 -4 -33 8 -10 8 -17 0 -25 -7 -7 -8 -17 -2 -27 5 -11 3 -23 -7
-36 -15 -20 -15 -20 -11 1 3 12 1 28 -3 37 -7 11 -4 19 8 26 17 11 17 11 0 22
-14 8 -15 14 -7 32 11 21 11 21 -4 3 -9 -11 -16 -24 -16 -29 0 -4 -5 -5 -10
-2 -6 3 -13 -1 -17 -11 -5 -15 -8 -14 -15 6 -8 22 -9 22 -22 4 -8 -10 -12 -23
-8 -29 3 -5 -2 -4 -11 4 -16 13 -16 14 0 28 10 8 12 12 6 8 -9 -4 -11 -1 -7 9
4 10 1 16 -7 16 -7 0 -9 3 -6 6 4 4 13 1 22 -6 8 -7 15 -9 15 -4 0 4 6 -1 14
-12 14 -18 15 -18 22 -1 4 13 9 15 14 7 4 -7 13 1 22 20 10 21 17 27 21 17 3
-7 16 -13 29 -12 12 1 28 -2 35 -7 16 -13 38 1 25 14 -6 6 -8 17 -5 25 7 18
16 9 19 -21z m58 5 c3 -5 -1 -11 -9 -14 -9 -4 -12 -1 -8 9 6 16 10 17 17 5z
m-446 -30 c8 -4 13 -11 13 -15 -3 -24 0 -28 14 -16 13 11 14 10 9 -3 -6 -16
10 -18 33 -4 18 11 48 -8 48 -30 0 -11 7 -18 20 -18 24 -1 55 13 54 23 -3 19
2 26 10 13 7 -10 4 -19 -7 -28 -14 -11 -14 -12 -1 -8 10 4 16 0 16 -10 0 -11
-5 -14 -16 -9 -9 4 -30 7 -48 7 -19 0 -34 6 -38 15 -4 11 -8 12 -20 2 -10 -8
-15 -9 -15 -2 0 6 5 14 10 17 13 8 13 25 -1 25 -5 0 -7 -5 -3 -12 5 -7 3 -8
-6 -3 -9 5 -11 4 -6 -3 9 -15 1 -15 -24 -2 -13 7 -21 7 -25 0 -3 -5 -11 -10
-17 -10 -7 0 -7 4 1 13 8 10 7 19 -4 33 -15 19 -15 19 -30 0 -11 -14 -12 -23
-4 -33 8 -9 8 -13 1 -13 -6 0 -14 5 -18 11 -4 8 -9 8 -18 -1 -8 -8 -7 -13 4
-20 8 -5 17 -7 21 -4 4 2 9 -3 13 -11 6 -18 2 -19 -27 -4 -19 9 -20 9 -5 -4
11 -9 14 -18 7 -28 -7 -12 -9 -12 -9 0 0 8 -3 11 -7 7 -5 -4 1 -14 11 -22 16
-11 17 -14 4 -14 -21 0 -42 26 -29 35 13 8 9 38 -8 59 -11 13 -11 16 0 17 8 1
18 1 23 0 5 -1 6 6 2 15 -5 14 -4 15 9 4 14 -12 17 -8 14 16 -1 7 22 24 31 24
3 0 11 -4 18 -9z m406 -9 c2 -4 -5 -9 -17 -9 -17 -2 -19 0 -7 7 18 12 18 12
24 2z m-69 -10 c-3 -3 3 -11 13 -18 16 -12 15 -15 -8 -36 -14 -13 -22 -20 -17
-16 5 3 18 -3 28 -13 14 -14 30 -18 58 -16 22 2 38 0 35 -5 -3 -4 2 -5 12 -1
14 5 13 8 -6 18 -13 7 -19 15 -14 18 5 3 20 -3 33 -14 13 -10 19 -19 14 -19
-5 0 -9 -18 -9 -39 0 -24 4 -37 9 -34 6 4 7 1 1 -8 -4 -8 -10 -23 -11 -33 -4
-24 -11 -32 -19 -23 -4 4 -1 13 6 22 10 12 10 15 0 15 -8 0 -10 3 -7 6 11 11
-12 44 -26 38 -8 -3 -14 2 -14 11 0 19 7 19 37 -2 21 -15 23 -15 12 -1 -10 13
-10 17 0 21 13 5 -15 11 -39 8 -7 -1 -13 3 -13 10 0 9 -3 9 -14 0 -10 -8 -16
-9 -21 -1 -9 15 -25 2 -18 -15 4 -11 1 -13 -11 -9 -12 5 -13 10 -6 24 6 11 7
21 2 24 -10 6 -45 -21 -40 -31 7 -11 -24 -37 -47 -41 -20 -3 -20 -2 -1 13 11
8 23 15 27 15 6 0 17 26 25 63 3 13 0 16 -8 11 -9 -5 -9 -2 1 9 11 14 11 20 0
34 -10 11 -10 14 -1 9 6 -4 12 -3 12 2 0 5 7 9 15 9 8 0 13 -3 10 -5z m-342
-17 c7 -16 -8 -29 -23 -20 -10 6 -2 35 10 35 4 0 10 -7 13 -15z m243 -21 c-3
-8 -2 -13 3 -10 5 3 12 -1 15 -10 3 -8 2 -12 -4 -9 -6 3 -10 1 -10 -5 0 -7 -5
-6 -14 2 -10 10 -11 17 -2 30 13 22 20 23 12 2z m34 6 c0 -5 -4 -10 -10 -10
-5 0 -10 5 -10 10 0 6 5 10 10 10 6 0 10 -4 10 -10z m218 -25 c-3 -3 -9 2 -12
12 -6 14 -5 15 5 6 7 -7 10 -15 7 -18z m-464 3 c-5 -7 -2 -9 9 -5 18 7 41 -15
29 -29 -4 -5 3 -1 14 9 19 16 22 16 28 2 4 -11 12 -14 26 -10 21 7 28 -9 8
-21 -7 -5 -8 -3 -3 7 5 8 -2 5 -15 -6 -20 -17 -22 -17 -17 -3 7 19 -8 34 -18
18 -10 -16 -38 -12 -32 4 6 15 -9 15 -47 0 -20 -8 -18 2 7 34 12 15 21 16 11
0z m-34 -13 c0 -8 -4 -15 -10 -15 -5 0 -10 7 -10 15 0 8 5 15 10 15 6 0 10 -7
10 -15z m265 -16 c20 3 20 3 0 -12 -11 -9 -17 -19 -12 -23 4 -4 7 -1 7 7 0 12
2 12 9 0 7 -10 4 -19 -6 -27 -19 -13 -26 -44 -12 -44 6 0 7 -5 4 -10 -5 -8
-11 -7 -21 1 -17 14 -19 33 -1 23 8 -5 8 -2 -2 9 -12 15 -11 17 3 17 9 0 16 5
16 10 0 7 -7 7 -21 -1 -17 -9 -20 -8 -16 3 2 7 10 12 16 11 6 -2 11 2 11 7 0
14 -13 13 -28 -2 -9 -9 -12 -9 -12 2 0 10 -4 8 -13 -5 -9 -11 -19 -15 -27 -10
-8 5 -11 4 -6 -3 4 -8 -5 -10 -28 -8 -30 2 -33 0 -26 -15 5 -9 6 -19 3 -23 -3
-3 0 -6 7 -6 7 0 11 -2 8 -5 -8 -8 -39 6 -33 15 3 5 -1 14 -7 22 -11 11 -9 17
9 36 20 22 21 22 16 3 -5 -21 11 -29 22 -11 4 6 10 8 15 5 5 -3 15 3 22 14 9
15 16 17 30 10 21 -11 42 -3 32 13 -5 7 -2 8 7 2 8 -5 23 -7 34 -5z m-199 -41
c-18 -13 -26 -9 -20 10 5 14 4 15 -5 2 -9 -13 -11 -13 -11 0 0 13 -1 13 -10 0
-6 -9 -10 -10 -10 -3 0 7 7 16 16 21 20 11 57 -18 40 -30z m-66 23 c0 -6 -5
-13 -12 -17 -7 -5 -8 -3 -3 6 6 9 4 11 -4 6 -9 -6 -8 -13 6 -29 16 -18 16 -20
1 -14 -13 5 -16 1 -12 -19 3 -16 1 -23 -6 -19 -5 3 -10 1 -10 -5 0 -7 6 -10
13 -7 10 4 13 -4 12 -29 -2 -19 1 -34 6 -34 11 0 7 -22 -6 -33 -5 -5 -1 -6 11
-3 15 5 21 2 21 -9 0 -9 -6 -14 -13 -11 -8 3 -18 -3 -23 -12 -8 -13 -9 -7 -6
21 4 31 1 42 -17 57 -19 15 -21 21 -10 32 11 11 12 10 7 -3 -4 -10 -2 -19 3
-23 5 -3 8 4 7 15 -1 11 -7 24 -14 29 -10 5 -10 9 -2 15 9 5 9 11 -1 23 -10
12 -10 14 0 8 12 -7 16 4 12 33 -1 8 4 18 12 22 17 11 28 11 28 0z m344 -6
c-4 -8 -11 -15 -16 -15 -6 0 -5 6 2 15 7 8 14 15 16 15 2 0 1 -7 -2 -15z m65
-18 c14 4 14 3 1 -6 -8 -6 -10 -11 -5 -11 6 0 11 -9 12 -20 2 -20 1 -20 -18 2
-11 13 -18 18 -15 13 2 -6 -10 -11 -30 -12 -21 0 -31 3 -27 10 3 6 1 7 -6 3
-6 -4 -9 -11 -6 -16 3 -4 -1 -10 -9 -13 -9 -4 -12 0 -9 13 6 24 29 33 53 20
21 -11 36 2 24 23 -5 9 -4 9 6 0 7 -6 20 -9 29 -6z m-352 -22 c23 -19 24 -22
8 -28 -13 -6 -16 -3 -11 8 3 9 2 13 -4 10 -6 -3 -10 0 -10 7 0 10 -2 10 -9 0
-4 -8 -12 -13 -17 -12 -18 3 -15 -19 4 -31 20 -12 20 -13 -2 -31 -11 -10 -16
-18 -11 -17 23 3 36 -2 30 -11 -4 -6 -11 -7 -17 -4 -6 4 -5 -3 2 -15 9 -17 15
-20 25 -11 9 8 14 7 19 -5 3 -9 2 -13 -3 -10 -5 3 -12 1 -16 -5 -3 -5 -11 -10
-16 -10 -6 0 -7 5 -4 10 3 6 0 13 -8 16 -14 5 -15 8 -19 64 -2 19 -6 40 -10
46 -5 7 -1 15 8 18 13 5 14 9 4 21 -19 23 25 15 57 -10z m157 -17 c-8 -12 37
-67 51 -62 6 3 12 -2 12 -11 0 -8 -3 -15 -6 -15 -13 0 -81 51 -81 61 0 6 6 7
13 3 9 -6 8 -3 -1 8 -8 10 -20 14 -29 11 -12 -5 -14 -3 -8 7 6 9 4 11 -6 6 -8
-4 -3 1 11 12 22 19 25 19 36 4 7 -9 10 -20 8 -24z m-38 -14 c8 3 11 0 8 -9
-5 -12 -9 -12 -28 0 -20 13 -23 13 -23 0 0 -8 3 -12 7 -10 4 2 7 -2 7 -10 0
-16 -56 -16 -72 0 -5 6 -9 8 -8 6 2 -2 -3 -11 -10 -19 -9 -12 -9 -16 1 -19 6
-3 9 -10 6 -15 -5 -7 -2 -8 7 -3 8 5 11 4 6 -1 -5 -5 -12 -8 -15 -7 -4 1 -13
-3 -19 -9 -9 -7 -13 -7 -13 0 0 6 4 13 8 16 6 4 7 26 3 69 -1 4 -6 6 -12 5 -6
-2 -13 2 -16 8 -2 6 3 11 11 11 8 0 17 -6 20 -13 3 -8 12 -11 21 -8 8 3 15 2
15 -4 0 -5 10 -8 23 -7 30 3 29 2 16 26 -8 15 -8 19 0 15 6 -4 11 -1 11 6 0 7
7 2 16 -10 9 -13 22 -21 30 -18z m144 1 c17 9 30 14 31 13 0 -2 2 -14 5 -27 4
-24 4 -24 -18 -5 -12 10 -19 14 -15 8 7 -12 -19 -54 -34 -54 -6 0 -8 4 -5 8 2
4 0 14 -5 22 -8 13 -10 13 -19 0 -5 -8 -10 -10 -10 -4 0 6 3 14 8 18 4 4 8 12
8 17 3 22 5 23 15 7 9 -17 12 -17 39 -3z m87 -5 c9 -12 8 -17 -3 -23 -19 -11
-45 9 -37 28 6 18 24 15 40 -5z m36 3 c-4 -10 -2 -14 5 -9 7 4 9 -4 7 -24 -3
-18 1 -33 10 -37 13 -8 18 -24 16 -55 -1 -22 -21 -24 -21 -3 0 8 6 15 13 15 8
0 8 3 1 8 -6 4 -13 15 -17 24 -5 15 -10 13 -38 -13 -17 -16 -35 -27 -38 -23
-3 3 5 15 19 26 14 11 24 27 22 34 -2 8 2 13 9 12 6 -2 14 4 16 12 4 12 3 12
-5 2 -5 -8 -12 -13 -16 -13 -19 3 -27 0 -21 -8 3 -6 -3 -9 -12 -9 -10 0 -27
-3 -37 -7 -13 -6 -17 -5 -12 3 3 6 1 14 -5 18 -7 4 -9 3 -6 -3 4 -6 -7 -16
-23 -23 -17 -7 -30 -16 -30 -21 0 -5 -7 -9 -16 -9 -8 0 -13 4 -10 9 3 5 -1 11
-9 14 -9 4 -12 1 -8 -9 10 -28 -15 -14 -28 16 -13 29 -30 33 -58 16 -9 -6 -10
-11 -2 -15 6 -4 3 -11 -10 -19 -17 -11 -20 -10 -17 4 2 9 -3 18 -10 20 -7 1
-8 0 -2 -3 6 -3 3 -12 -8 -21 -10 -10 -13 -14 -7 -10 13 8 25 1 25 -15 0 -6
-3 -7 -7 -4 -3 4 -12 2 -18 -3 -16 -13 -27 11 -15 31 6 9 3 20 -7 31 -10 11
-12 18 -5 18 7 0 12 -4 12 -10 0 -5 5 -10 11 -10 5 0 8 4 5 8 -2 4 4 8 14 8
10 0 16 -4 14 -8 -3 -4 -1 -8 4 -8 14 0 33 26 25 34 -4 3 4 5 17 3 12 -2 29
-12 36 -22 8 -10 14 -16 14 -12 0 4 11 0 24 -8 28 -19 55 -10 80 27 9 12 16
17 16 11 0 -14 67 -10 83 6 6 6 7 11 3 11 -5 0 -3 7 4 15 16 20 21 19 13 -2z
m-257 -60 c-7 -8 43 -55 52 -49 6 3 12 0 15 -7 3 -8 -3 -14 -15 -14 -10 -1
-22 5 -25 13 -3 8 -11 14 -19 14 -8 0 -14 6 -14 13 -1 6 -6 2 -13 -11 -7 -12
-16 -20 -19 -17 -3 4 -9 1 -14 -6 -5 -8 -3 -10 7 -4 11 6 12 5 2 -5 -7 -8 -15
-11 -19 -8 -9 10 16 49 27 43 9 -6 13 7 10 31 -1 6 6 11 14 11 8 0 13 -2 11
-4z m199 -33 c-18 -20 -11 -50 8 -31 7 7 16 7 29 0 10 -5 18 -7 18 -4 0 3 10
-5 21 -16 17 -17 20 -26 11 -39 -8 -13 -7 -21 1 -30 9 -10 9 -11 0 -6 -22 12
-26 -17 -5 -33 16 -12 20 -23 16 -44 -3 -21 -1 -27 7 -21 8 5 9 3 3 -7 -4 -8
-10 -23 -11 -33 -4 -24 -11 -32 -19 -23 -4 4 -1 13 6 22 10 12 10 15 0 15 -8
0 -10 3 -7 6 11 11 -12 44 -26 38 -8 -3 -14 2 -14 11 0 19 7 19 37 -2 21 -15
23 -15 12 -1 -10 13 -10 17 0 21 8 4 7 6 -4 6 -10 1 -18 7 -19 14 0 10 -2 10
-6 0 -7 -20 -19 -15 -20 7 -1 11 2 18 7 15 5 -3 12 0 16 6 4 8 3 9 -4 5 -7 -4
-12 -2 -12 3 0 6 9 16 20 23 11 7 20 16 20 20 0 12 -53 36 -72 33 -9 -2 -22 3
-29 11 -6 8 -16 11 -22 7 -6 -4 -8 0 -4 11 4 10 3 15 -3 11 -6 -3 -10 0 -11 7
0 10 -2 10 -6 1 -2 -7 -11 -13 -18 -13 -8 0 -16 -9 -20 -19 -3 -11 -13 -25
-22 -33 -15 -12 -15 -11 -4 10 6 12 8 22 4 22 -4 0 7 10 25 23 22 16 42 23 67
21 24 -2 33 0 29 8 -5 7 -3 8 5 4 9 -6 8 -12 -4 -26z m62 -22 c-18 -11 -29 2
-16 18 10 12 14 12 20 2 4 -7 3 -16 -4 -20z m-235 -16 c9 -7 22 -11 29 -6 8 4
10 3 5 -4 -4 -7 -4 -17 0 -23 4 -7 19 2 41 26 28 30 37 35 44 24 12 -19 11
-29 -2 -29 -5 0 -8 4 -5 8 3 5 -1 9 -9 9 -8 0 -12 -4 -9 -8 2 -4 -4 -12 -13
-18 -11 -6 -13 -11 -5 -11 7 0 10 -5 6 -11 -4 -8 -9 -7 -16 2 -10 14 -7 1 7
-34 4 -8 -1 -14 -10 -14 -9 0 -14 6 -11 14 8 19 -30 36 -54 23 -10 -6 -17 -16
-14 -23 3 -8 -2 -14 -11 -14 -18 0 -18 0 -4 31 7 14 16 23 22 19 6 -4 7 -1 2
7 -6 10 -4 12 10 6 15 -5 16 -4 5 9 -10 12 -15 13 -20 4 -5 -8 -11 -6 -20 7
-10 17 -11 17 -6 1 4 -13 1 -17 -11 -15 -9 2 -17 -5 -18 -15 -2 -10 1 -14 7
-11 6 4 9 1 6 -6 -2 -8 -17 -15 -34 -17 -27 -4 -28 -3 -10 10 19 14 14 43 -6
31 -7 -5 -8 -2 -3 5 4 8 -3 6 -18 -4 -24 -15 -26 -15 -36 2 -6 10 -11 13 -11
7 0 -5 -7 -19 -16 -30 -14 -18 -15 -18 -4 4 16 34 3 26 -15 -8 -9 -17 -27 -36
-41 -42 -15 -7 -20 -14 -13 -18 8 -6 8 -9 0 -14 -6 -4 -11 -2 -11 3 0 6 -5 11
-11 11 -8 0 -8 -5 1 -15 7 -8 16 -13 20 -10 4 3 8 -7 8 -22 0 -26 -1 -26 -16
-7 -12 16 -14 16 -9 2 7 -20 6 -21 -17 -12 -15 6 -15 8 1 19 14 11 15 16 4 28
-10 13 -9 17 9 27 17 9 19 14 9 26 -9 11 -9 17 0 28 10 12 7 17 -15 29 l-28
14 25 13 c22 12 23 12 10 -3 -12 -16 -9 -19 16 -16 3 0 10 -6 15 -15 5 -8 15
-13 23 -10 8 4 12 11 8 17 -3 6 -1 7 6 3 6 -4 22 -1 35 7 15 10 28 12 38 6 11
-6 19 -5 23 1 5 7 12 5 21 -7 13 -17 15 -17 37 8 22 27 29 27 59 1z m181 -15
c4 3 7 1 7 -5 0 -7 -7 -12 -15 -12 -19 0 -19 -19 0 -26 8 -4 12 -10 9 -16 -9
-15 -36 14 -31 34 3 10 0 21 -5 25 -7 4 -8 1 -3 -7 5 -8 4 -11 -3 -6 -19 12
-26 -17 -7 -31 16 -11 17 -13 3 -13 -9 0 -20 5 -23 10 -8 13 -25 13 -25 -1 0
-5 5 -7 11 -3 7 4 7 -2 -1 -17 -18 -34 -18 -34 -15 3 2 18 4 34 5 36 1 1 3 8
4 15 1 6 9 11 19 9 9 -2 20 4 23 13 6 14 8 14 24 0 9 -8 20 -12 23 -8z m41
-50 c-14 -16 -23 -36 -20 -44 3 -8 1 -11 -4 -8 -6 3 -10 1 -10 -4 0 -6 5 -11
12 -11 6 0 9 -2 6 -5 -3 -3 -12 -3 -21 1 -13 5 -14 10 -6 26 9 16 8 19 -3 13
-7 -3 -3 2 10 14 22 19 22 20 3 26 -19 6 -19 7 -3 24 13 13 22 15 39 8 l22
-10 -25 -30z m-251 26 c-4 -10 -9 -11 -19 -2 -18 15 -18 15 5 15 11 0 17 -5
14 -13z m-108 -8 c6 0 13 4 17 10 4 5 7 -1 7 -15 -1 -14 1 -35 4 -47 4 -16 2
-20 -8 -17 -7 3 -12 14 -10 25 3 16 1 17 -15 9 -14 -7 -19 -6 -24 6 -4 12 -2
15 9 11 8 -4 17 -2 19 2 3 5 -5 8 -17 7 -22 -2 -24 -7 -12 -39 5 -13 3 -16 -7
-12 -16 6 -17 28 -4 57 5 10 13 15 20 11 6 -4 16 -8 21 -8z m-155 -15 c0 -5
-5 -10 -11 -10 -5 0 -7 5 -4 10 3 6 8 10 11 10 2 0 4 -4 4 -10z m247 -27 c1
-22 -1 -24 -8 -10 -6 9 -7 22 -4 27 9 14 10 13 12 -17z m78 7 c-13 -12 -17
-12 -30 0 -12 13 -11 15 15 15 26 0 28 -2 15 -15z m-231 -15 c-3 -7 -12 -11
-20 -8 -11 4 -12 9 -3 19 14 17 30 9 23 -11z m160 -14 c14 19 103 21 110 3 3
-8 1 -16 -3 -19 -5 -3 -11 2 -15 10 -3 8 -11 15 -18 15 -10 0 -10 -2 1 -9 9
-6 10 -11 2 -15 -6 -4 -11 -2 -11 5 0 9 -3 9 -14 0 -9 -7 -17 -8 -20 -2 -3 5
0 12 6 14 10 4 10 6 0 6 -7 1 -15 -6 -18 -14 -4 -8 -11 -12 -18 -8 -7 5 -7 2
1 -8 8 -9 9 -20 3 -29 -6 -8 -10 -12 -11 -7 -1 4 -3 12 -4 17 -1 6 -3 16 -4
23 -1 8 -5 8 -14 -3 -13 -17 -67 -23 -67 -8 0 6 -7 7 -16 4 -8 -3 -13 -2 -10
2 2 4 -16 7 -40 7 -38 0 -42 -2 -27 -12 15 -12 11 -18 -10 -14 -5 1 -5 -4 -1
-11 4 -7 3 -10 -1 -5 -11 9 -14 68 -4 61 20 -12 81 -10 86 3 5 14 24 19 22 6
-4 -22 4 -29 30 -29 17 0 27 4 24 9 -4 6 -1 7 7 2 8 -5 11 -4 6 3 -4 6 -12 9
-20 6 -7 -3 -13 2 -13 10 0 8 4 13 9 10 4 -3 8 1 8 8 1 7 8 0 17 -16 13 -25
17 -27 27 -15z m165 23 c4 3 8 -1 8 -9 0 -9 -5 -14 -11 -13 -6 2 -12 -1 -13
-6 -1 -5 -7 -12 -15 -17 -7 -5 -14 -13 -14 -19 -1 -5 -2 -13 -3 -17 0 -4 -8 2
-17 13 -8 10 -12 13 -8 5 5 -9 3 -12 -4 -7 -7 4 -12 1 -12 -6 0 -9 -3 -9 -10
2 -9 13 -11 13 -20 0 -7 -11 -10 -11 -10 -2 0 7 -4 11 -8 8 -5 -3 -9 1 -9 8 0
9 14 14 41 14 62 0 63 0 77 34 7 17 15 26 17 20 2 -7 7 -10 11 -8z m37 -22 c3
-39 3 -42 12 -41 20 3 28 -3 29 -23 2 -20 1 -21 -8 -5 -6 9 -14 15 -19 12 -4
-3 -10 1 -13 8 -8 22 -44 13 -68 -17 -15 -19 -24 -24 -29 -16 -4 7 -13 9 -19
6 -6 -4 -9 -12 -6 -17 11 -16 -7 -10 -22 9 -8 11 -12 12 -11 3 2 -7 -3 -16
-11 -19 -8 -2 -11 0 -7 6 3 6 1 14 -5 18 -6 3 -14 1 -18 -5 -5 -8 -13 -5 -26
9 -15 17 -16 23 -5 33 9 8 11 9 6 0 -10 -18 13 -27 74 -28 57 0 84 10 73 28
-3 6 -1 7 5 3 11 -7 17 6 13 28 -1 5 5 3 14 -4 13 -11 18 -11 28 0 8 9 8 11 0
6 -7 -4 -10 0 -8 11 2 10 4 22 4 27 2 20 16 -7 17 -32z m-315 -40 c6 2 13 -2
16 -9 5 -13 -14 -12 -36 1 -10 7 -12 6 -6 -4 6 -10 4 -12 -9 -7 -10 4 -19 1
-22 -8 -4 -8 -11 -12 -17 -8 -6 3 -7 1 -3 -6 4 -6 13 -9 19 -5 7 3 3 -2 -7
-10 -26 -21 -37 -20 -30 2 5 14 4 15 -5 2 -9 -13 -11 -13 -11 0 -1 20 -19 -11
-25 -42 -4 -17 -2 -19 7 -10 21 21 32 13 12 -10 -10 -12 -14 -19 -8 -15 6 3
16 -5 23 -19 14 -31 14 -31 -4 -31 -9 0 -14 6 -11 13 3 8 -1 17 -9 21 -8 5
-16 17 -18 28 -1 11 -6 25 -10 31 -4 7 0 15 9 18 8 3 12 10 9 16 -3 5 -3 10 2
11 41 4 98 40 85 54 -4 4 3 3 15 -4 12 -6 27 -10 34 -9z m64 -10 c-2 -2 8 -14
23 -27 20 -17 30 -21 40 -12 10 8 12 7 10 -4 -2 -9 7 -14 32 -14 25 0 34 5 32
14 -2 11 0 12 10 4 10 -9 20 -5 40 12 15 13 25 25 23 27 -2 2 4 4 15 4 10 0
16 -4 14 -8 -5 -7 10 -11 21 -5 2 1 11 -7 19 -18 15 -20 3 -40 -17 -28 -5 3
-3 9 4 14 10 6 10 9 2 9 -6 0 -15 -4 -18 -10 -3 -5 -14 -10 -23 -10 -14 0 -13
2 3 13 12 10 14 16 7 21 -14 9 -34 -2 -27 -14 3 -5 1 -11 -5 -15 -5 -3 -10 0
-10 7 0 7 -10 1 -21 -14 -20 -27 -48 -40 -33 -16 4 7 3 8 -5 4 -6 -4 -9 -11
-7 -15 3 -4 -8 -8 -24 -8 -16 0 -27 4 -24 8 2 4 -1 11 -7 15 -8 4 -9 3 -5 -4
4 -7 3 -12 -3 -12 -5 0 -15 8 -20 18 -6 9 -11 11 -11 5 0 -7 -5 -13 -11 -13
-5 0 -8 4 -5 9 3 5 -1 12 -9 15 -8 3 -14 11 -13 17 2 6 -4 14 -12 16 -13 4
-13 3 0 -6 13 -10 13 -11 0 -11 -13 0 -13 -1 0 -11 13 -8 12 -10 -4 -7 -19 3
-33 38 -15 38 6 0 8 4 5 8 -2 4 4 8 14 8 11 0 17 -2 15 -4z m-69 -28 c3 9 10
13 15 10 5 -3 7 -9 4 -14 -3 -5 -1 -11 5 -15 6 -4 8 -11 5 -16 -4 -5 -1 -9 6
-9 19 0 1 -13 -23 -17 -21 -3 -21 -3 -2 19 10 12 13 18 5 13 -10 -6 -12 -4 -5
6 5 9 -2 7 -20 -5 -28 -18 -29 -18 -23 0 6 17 6 17 -8 -1 -8 -11 -22 -29 -32
-39 -10 -11 -12 -15 -4 -11 10 6 12 4 6 -5 -5 -9 -4 -11 4 -6 14 9 11 -15 -4
-27 -5 -5 -1 -6 11 -3 15 5 21 2 21 -9 0 -9 -6 -14 -13 -11 -8 3 -18 -3 -23
-12 -8 -13 -9 -7 -6 21 4 27 2 36 -7 31 -7 -4 -8 -3 -4 4 4 7 2 12 -5 12 -9 0
-9 3 0 14 13 16 -1 32 -19 21 -6 -3 -7 1 -4 10 5 11 10 13 19 5 7 -6 19 -9 26
-8 21 4 41 36 33 51 -4 6 2 4 14 -7 19 -17 22 -17 28 -2z m387 -1 c-4 -10 -2
-14 5 -9 7 4 9 -4 7 -24 -3 -18 1 -33 10 -37 13 -8 18 -24 16 -55 -1 -22 -21
-24 -21 -3 0 8 6 15 13 15 8 0 8 3 1 8 -6 4 -14 16 -18 26 -6 19 -7 19 -22 -2
-8 -12 -20 -19 -26 -16 -7 4 -5 10 5 16 9 5 14 15 10 24 -3 9 0 14 7 12 7 -2
15 4 17 12 4 12 3 12 -5 2 -5 -8 -12 -13 -16 -13 -19 3 -27 0 -21 -8 3 -6 -3
-9 -14 -8 -11 0 -17 5 -14 11 3 5 1 6 -5 2 -8 -5 -10 -2 -6 9 5 11 10 13 18 5
9 -7 19 -5 32 5 10 8 15 15 10 15 -5 0 -3 7 4 15 16 20 21 19 13 -2z m-291
-48 c7 -1 22 -6 33 -12 31 -16 83 -9 110 17 14 13 25 19 25 13 0 -6 -3 -13 -7
-16 -5 -2 -3 -2 4 -1 6 2 14 -4 17 -12 5 -12 1 -14 -17 -9 -15 4 -18 3 -8 -3
8 -6 10 -12 3 -16 -6 -4 -15 2 -21 11 -6 11 -11 13 -11 5 0 -7 -4 -11 -9 -8
-5 3 -14 -1 -21 -9 -7 -8 -17 -12 -22 -9 -6 4 -5 10 3 15 8 5 9 9 3 9 -6 0
-17 -7 -24 -15 -7 -8 -17 -15 -22 -15 -6 0 -4 8 3 17 10 11 10 14 2 9 -8 -4
-13 -2 -14 6 0 7 -5 3 -11 -9 -6 -13 -15 -23 -20 -23 -10 0 -6 23 7 33 6 5 0
5 -12 2 -19 -5 -22 -3 -17 12 5 14 4 15 -4 3 -6 -8 -8 -18 -5 -24 4 -5 1 -6
-7 -1 -9 5 -11 4 -6 -4 10 -15 -11 -41 -32 -41 -13 0 -12 2 3 14 10 7 19 19
21 27 7 47 23 67 36 46 4 -7 13 -12 20 -12z m205 2 c0 -7 2 -16 3 -22 5 -22
-1 -46 -10 -40 -6 4 -8 12 -4 18 3 7 -3 2 -15 -11 -11 -12 -22 -18 -26 -13 -3
6 6 18 19 27 20 13 24 20 16 34 -13 25 -13 30 3 24 8 -3 14 -10 14 -17z m-306
4 c-8 -5 -10 -14 -6 -21 6 -9 4 -11 -6 -6 -8 4 -6 1 5 -8 10 -8 16 -22 13 -30
-4 -9 1 -20 11 -25 15 -9 14 -10 -5 -8 -12 0 -19 5 -17 9 3 4 -3 5 -12 1 -12
-4 -15 -3 -10 5 4 7 1 15 -7 18 -12 4 -14 19 -8 57 0 5 5 6 10 2 5 -3 12 -1
16 5 3 5 12 10 18 10 8 0 7 -3 -2 -9z m32 -54 c-3 -5 -9 -3 -14 4 -4 7 -5 17
-2 22 3 5 9 3 14 -4 4 -7 5 -17 2 -22z m306 7 c-10 -12 -10 -14 1 -12 7 2 15
-3 18 -11 3 -9 0 -11 -8 -6 -8 5 -11 4 -7 -2 4 -6 -5 -15 -19 -22 -30 -13 -37
-14 -29 -2 3 5 0 13 -6 17 -7 4 -9 3 -6 -3 9 -15 -16 -23 -34 -12 -8 5 -9 9
-4 9 6 0 3 5 -5 10 -9 6 -10 10 -3 10 6 0 15 -5 19 -12 5 -7 11 -5 21 7 8 12
13 14 13 6 0 -8 6 -11 16 -7 10 4 13 2 8 -6 -5 -7 -3 -8 5 -4 7 5 10 14 7 22
-7 19 4 45 16 38 5 -3 4 -12 -3 -20z m-252 0 c-3 -4 -2 -15 3 -25 9 -15 7 -17
-15 -13 -25 4 -31 -6 -26 -45 2 -8 -2 -10 -11 -5 -7 5 -17 9 -22 9 -5 0 -11 6
-14 13 -2 7 2 10 11 7 8 -4 21 5 31 20 9 14 21 23 26 20 6 -3 7 1 4 9 -4 10
-1 16 7 16 7 0 9 -3 6 -6z m143 -6 c0 7 5 10 11 6 8 -5 6 -10 -5 -16 -13 -7
-14 -13 -5 -30 8 -15 8 -19 0 -14 -6 4 -11 5 -11 2 0 -3 10 -10 21 -17 12 -6
19 -7 16 -2 -4 6 13 8 39 7 24 -2 42 1 39 5 -5 10 21 25 45 25 8 1 24 -8 34
-18 15 -15 17 -23 8 -36 -8 -13 -7 -21 1 -30 7 -8 8 -11 1 -7 -6 4 -17 -5 -24
-18 -16 -30 -25 -32 -27 -5 -1 11 2 18 6 15 5 -2 15 3 22 13 13 15 12 16 -3 3
-12 -9 -18 -10 -18 -2 0 6 9 16 20 23 27 17 25 25 -9 42 -28 15 -30 14 -46
-11 -14 -20 -19 -23 -27 -12 -7 10 -8 8 -4 -7 5 -15 2 -21 -9 -21 -9 0 -14 6
-11 14 3 8 1 11 -4 8 -6 -3 -10 -1 -10 6 0 7 -6 5 -14 -6 -13 -18 -14 -18 -40
8 -25 25 -36 55 -16 42 6 -3 7 1 3 10 -5 13 -7 14 -14 3 -5 -7 -9 -8 -9 -2 0
5 5 15 12 22 9 9 14 9 20 -1 6 -9 8 -9 8 1z m167 -20 c-18 -11 -29 2 -16 18
10 12 14 12 20 2 4 -7 3 -16 -4 -20z m-190 -44 c12 -18 18 -36 13 -39 -5 -3
-12 4 -15 16 -6 17 -9 19 -17 8 -8 -11 -8 -10 -4 4 3 10 1 28 -5 40 -11 20
-12 20 -25 2 -17 -23 -18 -12 -2 18 11 21 12 21 22 3 6 -10 21 -34 33 -52z
m-72 27 c1 -12 -6 -26 -15 -31 -14 -7 -16 -4 -14 23 3 41 2 39 16 35 6 -2 12
-14 13 -27z m-255 4 c-11 -14 -3 -21 16 -12 3 1 10 -6 15 -15 5 -10 16 -15 24
-12 8 4 13 9 11 13 -9 14 40 6 51 -8 6 -9 17 -16 24 -16 21 0 21 -23 1 -34
-16 -8 -21 -7 -26 5 -4 12 -2 15 9 11 8 -4 17 -1 21 5 4 6 3 8 -4 4 -6 -3 -17
0 -24 7 -11 12 -15 12 -26 -2 -11 -14 -12 -13 -2 7 16 33 3 27 -15 -8 -8 -16
-29 -36 -45 -45 -33 -17 -55 -20 -27 -4 14 8 16 14 6 25 -9 11 -9 17 1 29 10
12 7 17 -15 27 -25 11 -25 13 -9 25 24 17 29 16 14 -2z m295 -33 c0 -15 6 -26
12 -25 7 1 9 -6 5 -20 -3 -13 -7 -16 -10 -8 -3 9 -7 10 -11 3 -4 -7 -12 -3
-20 10 -11 18 -11 20 3 15 10 -4 13 -1 9 9 -4 11 -9 12 -19 3 -10 -8 -14 -8
-14 0 0 6 4 11 9 11 5 0 13 9 16 21 9 26 19 16 20 -19z m-84 14 c1 -6 1 -15 0
-20 -1 -4 4 -14 10 -22 19 -23 1 -16 -25 11 -14 14 -21 25 -15 25 6 0 8 4 5 8
-3 5 1 9 9 9 8 0 16 -5 16 -11z m293 -49 c-14 -16 -23 -36 -20 -44 3 -8 1 -11
-4 -8 -6 3 -10 1 -10 -4 0 -6 -4 -11 -10 -11 -13 0 -8 22 8 35 10 8 9 11 -7
11 -11 0 -17 -4 -14 -9 3 -5 0 -8 -7 -5 -8 2 -16 10 -18 18 -3 7 0 10 6 7 5
-4 20 8 33 27 20 30 26 33 46 23 l22 -10 -25 -30z m-301 -8 c2 -8 6 -20 10
-26 10 -16 -5 -17 -21 -1 -15 15 -16 31 0 22 7 -4 8 -3 4 5 -6 8 -15 5 -33
-14 -36 -35 -40 -25 -6 13 27 29 42 30 46 1z m53 9 c10 -12 13 -18 7 -14 -7 4
-13 2 -13 -4 0 -6 -6 -8 -12 -4 -10 6 -10 4 0 -7 15 -16 16 -39 0 -39 -6 0 -8
3 -5 7 4 3 0 14 -8 23 -14 16 -14 18 -1 23 9 4 13 13 10 22 -8 21 0 19 22 -7z
m-266 2 c0 -5 -5 -10 -11 -10 -5 0 -7 5 -4 10 3 6 8 10 11 10 2 0 4 -4 4 -10z
m117 4 c-3 -4 0 -19 8 -35 20 -37 19 -43 -3 -21 -10 9 -17 26 -16 37 2 24 2
25 11 25 3 0 4 -3 0 -6z m333 -54 c5 0 9 -5 8 -12 -4 -17 62 -19 69 -2 4 10
10 11 24 3 15 -7 18 -17 14 -40 -4 -22 -2 -28 6 -23 8 5 9 3 3 -7 -4 -8 -10
-23 -11 -33 -4 -24 -11 -32 -19 -23 -4 4 -1 13 6 22 10 12 10 15 0 15 -8 0
-10 3 -7 6 12 12 -13 43 -29 37 -9 -3 -14 -1 -12 7 2 7 -4 15 -12 17 -12 4
-12 3 -1 -5 7 -5 9 -12 4 -15 -14 -9 -53 21 -53 41 0 15 -2 15 -10 2 -8 -12
-10 -12 -10 -1 0 8 -3 11 -7 7 -5 -4 1 -14 11 -22 17 -12 17 -14 4 -14 -9 0
-20 5 -23 10 -4 6 -15 8 -26 5 -14 -5 -17 -3 -13 9 3 9 9 14 13 12 3 -2 15 2
26 10 10 8 13 14 6 14 -7 0 -10 4 -7 8 2 4 -4 8 -14 8 -10 0 -16 -4 -14 -8 3
-5 2 -7 -3 -6 -4 1 -19 -2 -31 -6 -18 -6 -22 -13 -18 -30 4 -16 1 -23 -10 -23
-9 0 -13 6 -10 14 3 8 2 12 -2 10 -4 -2 -15 5 -25 15 -18 19 -18 19 13 14 20
-3 33 0 36 8 3 7 10 13 17 14 24 2 47 8 53 15 4 4 15 -7 25 -23 11 -17 23 -30
29 -30z m-357 15 c-3 -9 1 -15 11 -15 9 0 17 -6 18 -12 0 -7 2 -17 2 -23 1 -5
5 -15 9 -22 5 -8 1 -11 -12 -10 -12 1 -18 9 -18 24 0 13 4 20 10 16 6 -4 7 -1
3 6 -5 7 -10 10 -13 7 -2 -2 -13 3 -22 12 -12 12 -15 21 -8 29 12 16 28 7 20
-12z m117 -26 c0 -5 -9 -13 -21 -20 -19 -10 -20 -9 -14 13 4 16 3 19 -3 9 -6
-8 -12 -10 -16 -3 -10 16 26 33 41 20 7 -6 13 -14 13 -19z m151 2 c-12 -22 -1
-34 23 -25 10 4 18 0 22 -10 3 -9 9 -14 13 -11 4 2 8 -2 8 -9 0 -8 -11 -13
-24 -13 -18 0 -21 3 -14 10 14 14 14 27 -1 27 -6 0 -8 -3 -5 -7 8 -8 -11 -33
-25 -33 -7 0 -6 5 1 13 11 14 5 27 -13 27 -6 0 -6 -4 2 -8 9 -7 8 -13 -8 -27
-21 -19 -29 -8 -9 12 9 9 7 11 -7 9 -11 -2 -18 -10 -16 -19 1 -8 -2 -18 -7
-21 -5 -3 -8 4 -7 17 2 18 -2 23 -18 22 -12 -1 -27 5 -33 14 -12 14 -14 14
-28 -3 -8 -11 -15 -17 -15 -13 0 4 -8 3 -19 -2 -25 -14 -55 7 -41 29 9 13 12
13 21 -3 8 -14 14 -15 32 -5 12 6 28 18 35 27 8 9 11 11 8 4 -10 -19 16 -28
29 -10 11 15 13 14 23 -7 14 -31 47 -28 47 3 0 12 7 26 15 31 20 12 24 6 11
-19z m39 25 c0 -3 -4 -8 -10 -11 -5 -3 -10 -1 -10 4 0 6 5 11 10 11 6 0 10 -2
10 -4z m-312 -41 c9 -19 8 -26 -5 -37 -11 -8 -14 -8 -10 -1 4 6 2 15 -4 19 -8
4 -7 9 2 15 11 7 10 9 -3 9 -10 0 -18 6 -18 13 0 8 -3 8 -8 1 -4 -6 -16 -14
-27 -17 -18 -6 -18 -5 2 12 28 23 57 17 71 -14z m-42 -4 c-3 -5 1 -11 9 -14 8
-4 12 -15 10 -27 -3 -16 -1 -19 8 -12 7 5 32 8 57 7 25 -1 50 1 55 6 6 4 16 4
23 0 9 -6 7 -12 -8 -26 -12 -11 -20 -13 -20 -6 0 7 -4 10 -9 6 -5 -3 -13 -1
-16 5 -5 8 -11 7 -21 -1 -11 -9 -14 -8 -15 2 0 12 -1 12 -6 0 -5 -11 -7 -11
-15 0 -8 11 -9 11 -5 -1 2 -8 10 -14 16 -12 6 1 11 -2 11 -8 0 -5 -6 -10 -14
-10 -8 0 -18 5 -21 10 -11 17 -21 11 -38 -25 -15 -32 -15 -35 1 -44 9 -6 13
-11 9 -11 -4 0 -3 -9 2 -19 8 -14 7 -22 -6 -32 -14 -12 -16 -12 -11 2 3 9 2
22 -4 30 -7 11 -8 9 -3 -6 5 -16 4 -17 -6 -8 -10 10 -9 15 1 28 12 15 4 20
-22 16 -14 -2 -9 11 10 25 16 13 16 14 -3 7 -17 -6 -18 -5 -5 9 8 9 20 15 25
15 6 -1 10 5 10 13 0 8 4 21 8 28 5 7 3 12 -3 12 -6 0 -8 6 -4 13 4 6 -3 3
-16 -8 l-23 -20 12 23 c6 12 8 22 4 22 -4 0 -1 5 7 10 19 12 23 12 16 1z m194
-26 c0 -8 -4 -15 -10 -15 -5 0 -10 7 -10 15 0 8 5 15 10 15 6 0 10 -7 10 -15z
m217 -14 c1 -10 -4 -18 -11 -18 -8 0 -12 7 -11 16 2 9 4 20 4 25 1 15 15 -3
18 -23z m-172 -31 c2 -20 1 -20 -22 2 -14 13 -24 19 -23 13 4 -20 0 -35 -11
-35 -6 0 -8 8 -5 18 4 10 -1 7 -13 -8 -11 -13 -17 -28 -15 -32 8 -12 -4 -10
-36 7 -27 14 -54 5 -30 -10 5 -3 10 -11 10 -17 0 -6 -8 -3 -19 6 -18 17 -18
18 3 41 l21 24 18 -22 c10 -12 16 -16 12 -10 -4 9 -1 11 9 7 9 -3 16 -1 16 5
0 6 15 20 32 31 35 21 51 15 53 -20z m195 30 c0 -5 -2 -10 -4 -10 -3 0 -8 5
-11 10 -3 6 -1 10 4 10 6 0 11 -4 11 -10z m17 -10 c-1 -18 -10 -24 -29 -21 -5
0 -8 -3 -8 -8 0 -5 -12 -8 -26 -6 -15 1 -28 -3 -31 -11 -3 -8 -10 -11 -15 -8
-6 4 -5 10 3 15 7 4 10 11 5 16 -4 4 -12 0 -17 -9 -5 -10 -16 -15 -24 -12 -8
4 -12 10 -9 15 3 5 10 7 15 3 5 -3 8 0 7 7 -3 14 30 19 48 7 16 -11 57 -1 69
17 13 19 14 19 12 -5z m26 3 c-4 -10 -2 -14 5 -9 7 4 9 -4 7 -24 -3 -18 1 -33
10 -37 13 -8 18 -24 16 -55 -1 -22 -21 -24 -21 -3 0 8 6 15 13 15 8 0 8 3 1 8
-6 4 -13 15 -17 24 -5 15 -10 13 -38 -13 -17 -16 -35 -27 -38 -23 -3 3 5 15
19 26 14 11 24 27 22 34 -2 8 2 13 9 12 6 -2 14 4 16 12 4 12 3 12 -5 2 -5 -8
-12 -13 -16 -13 -20 3 -26 0 -21 -9 3 -5 -1 -10 -9 -10 -25 0 -19 16 10 29 15
6 24 15 20 18 -3 3 -1 12 5 20 15 18 20 16 12 -4z m-179 -24 c-13 -22 -10 -60
6 -69 13 -8 13 -9 0 -10 -25 0 -42 21 -28 37 17 21 2 27 -24 9 -25 -18 -42
-21 -33 -7 3 5 0 13 -6 17 -7 4 -9 3 -6 -3 4 -6 0 -13 -8 -17 -19 -7 -47 3
-40 15 3 4 12 6 20 3 8 -4 18 1 21 10 5 14 7 14 22 0 14 -15 17 -15 29 2 8 11
18 19 23 19 4 0 12 3 16 8 11 11 17 0 8 -14z m-198 -68 c12 10 12 14 -3 26
-16 12 -14 12 12 0 17 -7 53 -13 80 -12 56 1 80 -7 94 -34 9 -15 7 -18 -11
-17 -12 0 -23 7 -26 14 -2 8 3 10 15 6 14 -5 15 -4 4 4 -8 6 -21 8 -29 5 -8
-3 -18 0 -22 7 -10 16 -31 4 -24 -14 3 -7 -2 -13 -11 -13 -11 0 -13 6 -9 20 4
14 2 18 -7 15 -8 -3 -12 -14 -11 -24 2 -10 1 -16 -4 -12 -4 4 -13 3 -21 -3 -9
-8 -13 -8 -13 -1 0 6 5 14 10 17 13 8 13 25 -1 25 -5 0 -8 -4 -5 -9 7 -11 -14
-28 -36 -30 -40 -3 -48 -5 -48 -12 0 -4 9 -11 21 -14 19 -6 20 -7 2 -20 -11
-8 -20 -10 -24 -4 -3 6 -13 -1 -23 -15 -9 -14 -21 -26 -27 -26 -7 0 -6 6 2 18
13 15 12 16 -3 3 -22 -17 -23 -31 -3 -31 8 0 15 -5 15 -11 0 -5 -4 -8 -9 -4
-5 3 -13 1 -16 -5 -9 -14 13 -40 29 -34 7 3 13 -2 13 -11 0 -18 -2 -18 -30 -4
-12 7 -19 8 -15 4 4 -4 3 -17 -3 -28 -9 -15 -8 -18 2 -12 8 5 10 4 5 -4 -6 -9
-11 -9 -23 0 -12 11 -12 14 0 20 19 11 16 55 -3 51 -11 -3 -10 1 3 15 12 14
14 22 6 30 -8 8 -5 15 10 25 12 8 19 18 16 21 -3 4 0 3 7 -3 8 -7 17 -5 30 6
14 13 15 21 7 36 -8 15 -8 19 0 14 6 -4 11 -2 11 3 0 6 3 10 8 10 24 -4 35 2
24 13 -8 8 -15 8 -28 -3 -13 -11 -18 -11 -21 -1 -3 6 -9 9 -15 6 -5 -3 -2 8 7
26 l17 32 30 -36 c24 -29 33 -34 44 -25z m298 38 c-2 -4 5 -10 16 -14 18 -6
18 -8 5 -21 -8 -9 -15 -19 -15 -24 0 -14 18 -21 25 -10 4 7 12 7 26 0 10 -6
19 -8 19 -5 0 3 10 -5 21 -16 17 -17 20 -26 11 -39 -8 -13 -7 -21 1 -30 9 -10
9 -11 0 -6 -22 12 -26 -17 -5 -33 16 -12 20 -23 16 -44 -3 -21 -1 -27 7 -21 8
5 9 3 3 -7 -4 -8 -10 -23 -11 -33 -4 -24 -11 -32 -19 -23 -4 4 -1 13 6 22 10
12 10 15 0 15 -8 0 -10 3 -7 6 11 11 -12 44 -26 38 -8 -3 -14 2 -14 11 0 19 7
19 37 -2 21 -15 23 -15 12 -1 -10 13 -10 17 0 21 8 4 7 6 -4 6 -10 1 -18 7
-19 14 0 10 -2 10 -6 0 -7 -20 -19 -15 -20 7 -1 11 2 18 7 15 5 -3 12 0 16 6
4 8 3 9 -4 5 -7 -4 -12 -2 -12 3 0 6 9 16 20 23 11 7 20 16 20 20 0 12 -53 36
-72 33 -9 -2 -22 3 -29 11 -6 8 -16 11 -21 7 -6 -3 -8 0 -6 8 3 8 10 13 16 12
16 -4 7 30 -9 35 -9 2 -10 1 -3 -5 9 -6 8 -11 -2 -21 -12 -11 -17 -9 -16 8 0
3 -8 6 -19 6 -19 0 -19 -1 -3 -13 13 -10 14 -13 3 -13 -17 1 -58 30 -40 30 7
0 9 5 6 10 -7 12 17 9 26 -3 7 -9 41 2 35 12 -3 4 4 7 14 7 10 0 17 -3 14 -7z
m83 -61 c-18 -11 -29 2 -16 18 10 12 14 12 20 2 4 -7 3 -16 -4 -20z m-208 -24
c5 3 8 0 7 -7 0 -6 4 -13 9 -15 9 -3 34 -40 35 -53 0 -3 -7 -6 -15 -6 -9 0
-14 6 -11 14 3 7 -4 17 -14 23 -24 13 -62 -4 -54 -23 3 -8 -2 -14 -11 -14 -18
0 -18 0 -4 31 7 14 16 23 22 19 6 -4 7 -1 2 7 -6 10 -4 12 10 6 15 -5 16 -4 5
9 -10 12 -15 13 -20 4 -5 -8 -11 -6 -20 7 -10 16 -11 16 -6 2 6 -19 -9 -25
-19 -8 -3 5 -12 7 -20 3 -8 -3 -15 -1 -15 5 0 5 10 9 23 8 15 -1 22 4 21 17
-2 15 3 14 32 -8 19 -14 38 -24 43 -21z m42 7 c-9 -16 -8 -22 8 -31 13 -7 22
-7 26 0 3 5 11 10 16 10 6 0 7 -5 3 -12 -4 -6 1 -17 11 -25 27 -19 -1 -16 -31
3 -22 15 -24 15 -18 0 3 -9 11 -13 16 -10 6 4 4 -4 -2 -17 -16 -31 -25 -39
-17 -16 8 22 -20 80 -34 71 -7 -4 -7 1 0 15 7 11 8 21 4 21 -4 0 -1 4 7 10 20
12 24 6 11 -19z m69 -2 c0 11 4 11 18 -2 10 -10 22 -14 25 -10 4 3 7 1 7 -5 0
-7 -7 -12 -15 -12 -19 0 -19 -19 0 -26 8 -4 12 -10 9 -15 -3 -5 -9 -7 -14 -4
-5 3 -7 -7 -4 -21 4 -24 3 -26 -10 -14 -9 7 -13 17 -10 22 10 16 11 69 1 75
-6 3 -7 2 -4 -3 3 -6 1 -16 -5 -24 -8 -12 -9 -12 -4 2 6 21 -10 33 -27 19 -7
-5 -19 -6 -26 -2 -10 7 -9 13 9 31 l23 23 13 -24 c7 -13 13 -18 14 -10z m-305
2 c-6 -11 34 -9 52 2 6 4 14 0 17 -9 3 -9 13 -14 21 -10 8 3 17 1 21 -5 3 -6
12 -8 20 -5 8 3 11 0 7 -9 -3 -8 -9 -12 -14 -9 -5 3 -7 -12 -4 -33 3 -29 2
-34 -6 -20 -6 9 -8 21 -4 26 3 5 -9 7 -27 4 -30 -4 -32 -3 -14 10 19 14 14 43
-6 31 -7 -4 -8 -2 -4 5 4 6 -9 2 -30 -9 -30 -17 -35 -18 -30 -5 3 9 -1 18 -10
22 -13 5 -13 7 -2 14 17 11 20 11 13 0z m389 -64 c-14 -16 -23 -36 -20 -44 3
-8 1 -11 -4 -8 -6 3 -10 2 -10 -4 0 -5 6 -12 13 -15 6 -3 2 -3 -10 0 -13 3
-23 1 -23 -4 0 -4 -14 -8 -30 -8 -17 0 -29 4 -27 10 2 6 13 10 23 8 19 -2 19
-2 0 12 -19 16 -41 12 -31 -5 4 -5 1 -9 -4 -9 -14 0 -13 10 4 40 8 14 14 19
15 12 0 -7 5 -10 12 -6 6 4 8 3 5 -3 -4 -6 2 -18 12 -27 19 -17 39 -7 26 13
-3 5 4 16 16 24 21 15 21 15 0 22 -19 6 -19 7 -3 24 13 13 22 15 39 8 l22 -10
-25 -30z m-348 -5 c-12 -12 -19 -13 -27 -5 -13 13 -4 33 14 33 7 0 6 -4 -3
-10 -10 -7 -11 -10 -2 -10 7 0 16 8 19 17 5 12 8 13 11 4 2 -7 -3 -20 -12 -29z
m-2 -13 c9 7 16 10 17 5 0 -5 2 -17 4 -26 2 -11 -2 -15 -11 -11 -8 3 -11 9 -8
14 3 5 -3 6 -12 2 -11 -4 -13 -8 -6 -11 17 -5 15 -19 -3 -19 -8 0 -16 6 -19
14 -3 7 -1 13 5 13 6 0 7 5 3 11 -3 6 -9 7 -13 3 -3 -5 -15 -11 -25 -12 -16
-3 -18 -1 -8 11 6 7 9 17 6 20 -3 3 -3 11 1 17 5 8 15 3 30 -16 20 -25 25 -27
39 -15z m-85 -5 c-11 -14 5 -29 20 -19 6 3 15 -3 20 -14 14 -26 14 -34 -1 -25
-10 6 -9 3 0 -9 12 -14 11 -16 -7 -14 -12 1 -20 6 -17 12 7 16 13 41 9 32 -3
-4 -8 -5 -13 -2 -4 2 -7 -7 -7 -21 0 -13 -2 -26 -4 -27 -2 -1 -16 -12 -30 -25
l-26 -23 0 25 c0 19 4 25 18 23 10 -1 18 2 18 7 -1 5 5 13 13 17 13 9 11 10
-31 13 -8 1 -16 8 -18 16 -4 13 -3 13 6 0 11 -16 11 -17 15 26 1 6 8 19 15 28
11 13 16 14 22 4 4 -7 3 -18 -2 -24z m246 6 c-13 -12 -17 -12 -30 0 -12 13
-11 15 15 15 26 0 28 -2 15 -15z m-71 -29 c12 15 106 22 106 7 0 -4 0 -10 0
-14 -1 -3 9 -13 22 -24 23 -18 23 -18 4 -39 -11 -12 -21 -19 -24 -16 -3 3 3
13 12 24 13 14 14 21 5 27 -7 4 -10 3 -5 -4 3 -6 2 -13 -4 -17 -5 -3 -10 -1
-10 4 0 31 -16 61 -33 61 -8 0 -8 -3 2 -9 9 -6 10 -11 2 -15 -6 -4 -11 -2 -11
5 0 9 -3 9 -14 0 -9 -7 -17 -8 -20 -2 -3 5 0 12 6 14 10 4 10 6 0 6 -7 1 -15
-6 -18 -14 -4 -8 -11 -12 -18 -8 -7 5 -7 2 1 -8 8 -9 9 -20 3 -29 -6 -8 -10
-12 -11 -7 -1 4 -3 12 -4 17 -1 6 -3 16 -4 23 -1 8 -5 8 -14 -3 -14 -18 -70
-23 -64 -6 2 6 16 10 30 10 16 -1 24 3 20 9 -4 6 -1 7 7 2 8 -5 11 -4 6 3 -4
6 -12 9 -20 6 -7 -3 -13 2 -13 10 0 8 4 13 9 10 4 -3 8 1 8 8 1 7 8 0 17 -16
13 -25 17 -27 27 -15z m93 -37 c0 -7 -4 -11 -9 -8 -4 3 -8 -1 -8 -8 0 -9 -3
-9 -10 2 -9 13 -11 13 -20 0 -7 -11 -10 -11 -10 -2 0 7 -4 11 -8 8 -5 -3 -9 1
-9 8 0 8 14 13 37 13 23 0 37 -5 37 -13z m-110 -1 c-17 -16 16 -29 70 -26 43
1 53 -1 40 -8 -9 -6 -15 -14 -12 -20 11 -16 -7 -10 -22 9 -8 11 -12 12 -11 3
2 -7 -3 -16 -11 -19 -8 -2 -11 0 -7 6 3 6 1 14 -5 18 -6 3 -14 1 -18 -5 -5 -8
-13 -5 -25 8 -16 18 -15 41 1 41 4 0 3 -3 0 -7z m260 -26 c2 -20 1 -20 -8 -4
-6 9 -14 15 -20 12 -10 -7 -13 8 -3 18 11 11 30 -4 31 -26z m-337 13 c0 -5 -6
-10 -12 -10 -10 0 -10 -2 0 -9 10 -6 10 -10 -2 -20 -10 -8 -16 -9 -21 -1 -3 5
-2 10 4 10 5 0 8 9 6 20 -2 13 2 20 11 20 8 0 14 -4 14 -10z m45 2 c-2 -2 8
-14 23 -27 20 -17 30 -21 40 -12 10 8 12 7 10 -4 -2 -9 7 -14 32 -14 25 0 34
5 32 14 -2 11 0 12 10 4 10 -9 20 -5 40 12 15 13 25 25 23 27 -2 2 4 4 15 4
10 0 16 -4 14 -8 -5 -7 10 -11 21 -5 2 1 11 -7 19 -18 15 -20 3 -40 -17 -28
-5 3 -3 9 4 14 10 6 10 9 2 9 -6 0 -15 -4 -18 -10 -3 -5 -14 -10 -23 -10 -14
0 -13 2 3 13 12 10 14 16 7 21 -14 9 -34 -2 -27 -14 3 -5 1 -11 -5 -15 -5 -3
-10 0 -10 7 0 7 -10 1 -21 -14 -20 -27 -48 -40 -33 -16 4 7 3 8 -5 4 -6 -4 -9
-11 -7 -15 3 -4 -8 -8 -24 -8 -16 0 -27 4 -24 8 2 4 -1 11 -7 15 -8 4 -9 3 -5
-4 4 -7 3 -12 -3 -12 -5 0 -15 8 -20 18 -6 9 -11 11 -11 5 0 -7 -5 -13 -11
-13 -5 0 -8 4 -5 9 3 5 -1 12 -9 15 -8 3 -14 11 -13 17 2 6 -4 14 -12 16 -13
4 -13 3 0 -6 13 -10 13 -11 0 -11 -13 0 -13 -1 0 -11 12 -9 11 -10 -8 -6 -14
3 -20 1 -15 -5 4 -7 1 -8 -8 -4 -8 4 -5 0 5 -8 11 -9 18 -16 15 -17 -2 0 -17
-2 -32 -4 l-28 -4 25 33 c14 19 22 36 19 40 -4 3 -1 6 6 6 7 0 10 4 7 8 -2 4
4 8 14 8 11 0 17 -2 15 -4z m-97 -25 c-1 -2 3 -11 11 -20 10 -13 11 -20 2 -31
-14 -16 2 -32 20 -20 10 6 29 -12 29 -29 0 -10 -23 -4 -32 8 -5 6 -11 5 -17
-4 -8 -12 -12 -11 -27 4 -17 17 -17 17 6 11 20 -6 19 -4 -7 13 -18 11 -33 26
-33 33 -1 8 -7 5 -15 -6 -8 -10 -12 -22 -10 -27 3 -4 -1 -10 -7 -12 -8 -3 -6
-6 5 -6 10 -1 16 -5 13 -10 -4 -5 0 -11 6 -14 7 -2 1 -4 -13 -3 -21 1 -25 6
-23 24 2 16 -2 22 -11 18 -19 -7 -27 5 -14 21 14 17 33 17 23 1 -5 -7 9 2 30
20 20 18 41 30 47 27 5 -4 9 -1 9 6 0 7 3 10 6 7 3 -4 4 -8 2 -11z m415 -4
c-4 -10 -2 -14 5 -9 7 4 9 -4 7 -24 -3 -20 1 -33 12 -38 21 -12 20 -58 -3 -83
-17 -19 -24 -36 -26 -66 -2 -16 -1 -16 -33 -1 -18 8 -22 14 -13 20 18 11 30
10 23 -2 -10 -16 1 -11 16 7 10 11 10 14 2 9 -24 -14 -13 13 11 29 17 11 23
24 21 44 -4 43 -16 58 -29 35 -12 -20 -36 -30 -36 -15 0 5 7 11 15 15 8 3 12
12 9 21 -4 10 -2 15 6 13 7 -2 15 4 17 12 4 12 3 12 -5 2 -5 -8 -12 -13 -16
-13 -19 3 -27 0 -21 -8 3 -6 -3 -9 -14 -8 -11 0 -17 5 -14 11 3 5 1 6 -5 2 -8
-5 -10 -2 -6 9 5 11 10 13 18 5 9 -7 19 -5 32 5 10 8 15 15 10 15 -5 0 -3 7 4
15 16 20 21 19 13 -2z m-291 -48 c7 -1 22 -6 33 -12 31 -16 83 -9 110 17 14
13 25 19 25 13 0 -6 -3 -13 -7 -16 -5 -2 -3 -2 4 -1 6 2 14 -4 17 -12 5 -12 1
-14 -17 -9 -13 4 -17 3 -10 -2 7 -5 9 -14 4 -22 -7 -10 -11 -8 -16 9 l-7 23
-15 -24 c-8 -13 -12 -16 -9 -6 4 11 2 16 -5 12 -5 -4 -7 -16 -3 -27 4 -13 2
-18 -4 -14 -6 4 -15 -2 -21 -11 -8 -15 -10 -15 -11 -2 0 8 6 21 13 28 10 11
10 13 0 7 -7 -4 -13 -3 -13 3 0 5 6 12 13 14 9 4 9 6 -1 6 -7 1 -17 -10 -24
-24 -6 -13 -15 -22 -19 -19 -5 3 -4 14 2 26 7 12 7 18 1 14 -6 -3 -12 -1 -14
6 -3 7 -7 5 -11 -6 -4 -10 -3 -15 3 -11 6 3 10 2 10 -3 0 -6 -7 -13 -16 -16
-12 -5 -14 -9 -5 -20 9 -11 6 -13 -13 -13 -24 0 -24 1 -10 23 9 13 13 27 10
33 -3 5 0 12 6 15 7 3 3 3 -9 0 -19 -4 -22 -2 -17 13 5 14 4 15 -4 4 -6 -8 -9
-22 -7 -32 2 -10 -2 -22 -9 -28 -9 -8 -12 -4 -10 17 4 56 21 83 36 59 4 -7 13
-12 20 -12z m206 2 c2 -22 7 -42 15 -54 5 -7 4 -13 -2 -13 -5 0 -15 8 -20 18
-6 10 -11 12 -11 4 0 -7 -5 -10 -11 -6 -8 5 -6 10 5 16 12 7 14 14 6 28 -13
25 -13 30 3 24 8 -3 14 -10 15 -17z m-367 -25 c-22 -7 29 -41 57 -38 15 2 32
-3 38 -12 9 -12 13 -12 27 3 10 9 15 21 12 26 -4 5 -1 9 4 9 15 0 14 -12 -5
-38 -15 -22 -14 -24 16 -26 8 -1 15 -6 15 -13 0 -6 3 -15 8 -19 12 -13 8 -20
-13 -20 -14 0 -18 5 -15 17 4 11 -4 20 -24 29 -17 7 -36 18 -42 26 -6 8 -16
14 -22 14 -6 0 -1 -7 11 -16 12 -8 19 -20 16 -26 -4 -7 -10 -5 -16 5 -5 10
-15 14 -25 10 -11 -4 -14 -3 -9 5 4 7 -3 17 -18 24 -24 10 -30 20 -27 41 0 4
-4 7 -10 7 -5 0 -7 5 -4 10 5 8 12 7 22 -2 10 -8 11 -14 4 -16z m405 -26 c1
-14 -4 -27 -12 -30 -9 -3 -12 -11 -9 -17 4 -6 13 -8 21 -5 8 3 14 1 14 -5 0
-5 6 -4 14 3 12 11 12 14 0 21 -8 4 -14 13 -14 19 0 9 3 9 11 1 6 -6 18 -9 26
-6 27 11 8 -22 -35 -57 -38 -31 -40 -36 -25 -47 20 -15 5 -17 -17 -3 -12 8
-13 13 -3 29 18 29 -4 72 -35 66 -15 -2 -20 0 -16 8 3 7 -2 3 -10 -7 -12 -15
-13 -23 -4 -33 8 -10 8 -17 0 -25 -7 -7 -8 -17 -2 -27 5 -11 3 -23 -7 -36 -15
-20 -15 -20 -11 1 3 12 1 28 -3 37 -7 11 -4 19 8 26 17 11 17 11 0 22 -14 8
-15 14 -7 32 11 21 11 21 -4 3 -9 -11 -16 -24 -16 -29 0 -4 -5 -5 -10 -2 -6 3
-13 -1 -17 -11 -5 -15 -8 -14 -15 6 -8 22 -9 22 -22 4 -8 -10 -12 -23 -8 -29
3 -5 -2 -4 -11 4 -16 13 -16 14 0 28 10 8 12 12 6 8 -9 -4 -11 -1 -7 9 4 10 1
16 -7 16 -7 0 -9 3 -6 6 4 4 13 1 22 -6 8 -7 15 -9 15 -4 0 4 6 -1 14 -12 14
-18 15 -18 22 -1 4 13 9 15 14 7 4 -7 13 1 22 20 10 21 17 27 21 17 3 -7 16
-13 29 -12 12 1 28 -2 35 -7 16 -13 38 1 25 14 -6 6 -8 17 -5 25 7 18 16 9 19
-21z m58 5 c3 -5 -1 -11 -9 -14 -9 -4 -12 -1 -8 9 6 16 10 17 17 5z m-446 -30
c8 -4 13 -11 13 -15 -3 -24 0 -28 14 -16 13 11 14 10 9 -3 -6 -16 10 -18 33
-4 18 11 48 -8 48 -30 0 -11 7 -18 20 -18 24 -1 55 13 54 23 -3 19 2 26 10 13
7 -10 4 -19 -7 -28 -14 -11 -14 -12 -1 -8 10 4 16 0 16 -10 0 -11 -5 -14 -16
-9 -9 4 -30 7 -48 7 -19 0 -34 6 -38 15 -4 11 -8 12 -20 2 -10 -8 -15 -9 -15
-2 0 6 5 14 10 17 13 8 13 25 -1 25 -5 0 -7 -5 -3 -12 5 -7 3 -8 -6 -3 -9 5
-11 4 -6 -3 9 -15 1 -15 -24 -2 -13 7 -21 7 -25 0 -3 -5 -11 -10 -17 -10 -7 0
-7 4 1 13 8 10 7 19 -4 33 -15 19 -15 19 -30 0 -11 -14 -12 -23 -4 -33 8 -9 8
-13 1 -13 -6 0 -14 5 -18 11 -4 8 -9 8 -18 -1 -8 -8 -7 -13 4 -20 8 -5 17 -7
21 -4 4 2 9 -3 13 -11 6 -18 2 -19 -27 -4 -19 9 -20 9 -5 -4 11 -9 14 -18 7
-28 -7 -12 -9 -12 -9 0 0 8 -3 11 -7 7 -5 -4 1 -14 11 -22 16 -11 17 -14 4
-14 -21 0 -42 26 -29 35 13 8 9 38 -8 59 -11 13 -11 16 0 17 8 1 18 1 23 0 5
-1 6 6 2 15 -5 14 -4 15 9 4 14 -12 17 -8 14 16 -1 7 22 24 31 24 3 0 11 -4
18 -9z m406 -9 c2 -4 -5 -9 -17 -9 -17 -2 -19 0 -7 7 18 12 18 12 24 2z m-69
-10 c-3 -3 3 -11 13 -18 16 -12 15 -15 -8 -36 -14 -13 -22 -20 -17 -16 5 3 18
-3 28 -13 14 -14 30 -18 58 -16 22 2 38 0 35 -5 -3 -4 2 -5 12 -1 14 5 13 8
-6 18 -13 7 -19 15 -14 18 5 3 20 -3 33 -14 13 -10 19 -19 14 -19 -5 0 -9 -18
-9 -39 0 -24 4 -37 9 -34 6 4 7 1 1 -8 -4 -8 -10 -23 -11 -33 -4 -24 -11 -32
-19 -23 -4 4 -1 13 6 22 10 12 10 15 0 15 -8 0 -10 3 -7 6 11 11 -12 44 -26
38 -8 -3 -14 2 -14 11 0 19 7 19 37 -2 21 -15 23 -15 12 -1 -10 13 -10 17 0
21 13 5 -15 11 -39 8 -7 -1 -13 3 -13 10 0 9 -3 9 -14 0 -10 -8 -16 -9 -21 -1
-9 15 -25 2 -18 -15 4 -11 1 -13 -11 -9 -12 5 -13 10 -6 24 6 11 7 21 2 24
-10 6 -45 -21 -40 -31 7 -11 -24 -37 -47 -41 -20 -3 -20 -2 -1 13 11 8 23 15
27 15 6 0 17 26 25 63 3 13 0 16 -8 11 -9 -5 -9 -2 1 9 11 14 11 20 0 34 -10
11 -10 14 -1 9 6 -4 12 -3 12 2 0 5 7 9 15 9 8 0 13 -3 10 -5z m-342 -17 c7
-16 -8 -29 -23 -20 -10 6 -2 35 10 35 4 0 10 -7 13 -15z m243 -21 c-3 -8 -2
-13 3 -10 5 3 12 -1 15 -10 3 -8 2 -12 -4 -9 -6 3 -10 1 -10 -5 0 -7 -5 -6
-14 2 -10 10 -11 17 -2 30 13 22 20 23 12 2z m34 6 c0 -5 -4 -10 -10 -10 -5 0
-10 5 -10 10 0 6 5 10 10 10 6 0 10 -4 10 -10z m218 -25 c-3 -3 -9 2 -12 12
-6 14 -5 15 5 6 7 -7 10 -15 7 -18z m-464 3 c-5 -7 -2 -9 9 -5 18 7 41 -15 29
-29 -4 -5 3 -1 14 9 19 16 22 16 28 2 4 -11 12 -14 26 -10 21 7 28 -9 8 -21
-7 -5 -8 -3 -3 7 5 8 -2 5 -15 -6 -20 -17 -22 -17 -17 -3 7 19 -8 34 -18 18
-10 -16 -38 -12 -32 4 6 15 -9 15 -47 0 -20 -8 -18 2 7 34 12 15 21 16 11 0z
m-34 -13 c0 -8 -4 -15 -10 -15 -5 0 -10 7 -10 15 0 8 5 15 10 15 6 0 10 -7 10
-15z m265 -16 c20 3 20 3 0 -12 -11 -9 -17 -19 -12 -23 4 -4 7 -1 7 7 0 12 2
12 9 0 7 -10 4 -19 -6 -27 -19 -13 -26 -44 -12 -44 6 0 7 -5 4 -10 -5 -8 -11
-7 -21 1 -17 14 -19 33 -1 23 8 -5 8 -2 -2 9 -12 15 -11 17 3 17 9 0 16 5 16
10 0 7 -7 7 -21 -1 -17 -9 -20 -8 -16 3 2 7 10 12 16 11 6 -2 11 2 11 7 0 14
-13 13 -28 -2 -9 -9 -12 -9 -12 2 0 10 -4 8 -13 -5 -9 -11 -19 -15 -27 -10 -8
5 -11 4 -6 -3 4 -8 -5 -10 -28 -8 -30 2 -33 0 -26 -15 5 -9 6 -19 3 -23 -3 -3
0 -6 7 -6 7 0 11 -2 8 -5 -8 -8 -39 6 -33 15 3 5 -1 14 -7 22 -11 11 -9 17 9
36 20 22 21 22 16 3 -5 -21 11 -29 22 -11 4 6 10 8 15 5 5 -3 15 3 22 14 9 15
16 17 30 10 21 -11 42 -3 32 13 -5 7 -2 8 7 2 8 -5 23 -7 34 -5z m-199 -41
c-18 -13 -26 -9 -20 10 5 14 4 15 -5 2 -9 -13 -11 -13 -11 0 0 13 -1 13 -10 0
-6 -9 -10 -10 -10 -3 0 7 7 16 16 21 20 11 57 -18 40 -30z m-66 23 c0 -6 -5
-13 -12 -17 -7 -5 -8 -3 -3 6 6 9 4 11 -4 6 -9 -6 -8 -13 6 -29 16 -18 16 -20
1 -14 -13 5 -16 1 -12 -19 3 -16 1 -23 -6 -19 -5 3 -10 1 -10 -5 0 -7 6 -10
13 -7 10 4 13 -4 12 -29 -2 -19 1 -34 6 -34 11 0 7 -22 -6 -33 -5 -5 -1 -6 11
-3 15 5 21 2 21 -9 0 -9 -6 -14 -13 -11 -8 3 -18 -3 -23 -12 -8 -13 -9 -7 -6
21 4 31 1 42 -17 57 -19 15 -21 21 -10 32 11 11 12 10 7 -3 -4 -10 -2 -19 3
-23 5 -3 8 4 7 15 -1 11 -7 24 -14 29 -10 5 -10 9 -2 15 9 5 9 11 -1 23 -10
12 -10 14 0 8 12 -7 16 4 12 33 -1 8 4 18 12 22 17 11 28 11 28 0z m344 -6
c-4 -8 -11 -15 -16 -15 -6 0 -5 6 2 15 7 8 14 15 16 15 2 0 1 -7 -2 -15z m65
-18 c14 4 14 3 1 -6 -8 -6 -10 -11 -5 -11 6 0 11 -9 12 -20 2 -20 1 -20 -18 2
-11 13 -18 18 -15 13 2 -6 -10 -11 -30 -12 -21 0 -31 3 -27 10 3 6 1 7 -6 3
-6 -4 -9 -11 -6 -16 3 -4 -1 -10 -9 -13 -9 -4 -12 0 -9 13 6 24 29 33 53 20
21 -11 36 2 24 23 -5 9 -4 9 6 0 7 -6 20 -9 29 -6z m-352 -22 c23 -19 24 -22
8 -28 -13 -6 -16 -3 -11 8 3 9 2 13 -4 10 -6 -3 -10 0 -10 7 0 10 -2 10 -9 0
-4 -8 -12 -13 -17 -12 -18 3 -15 -19 4 -31 20 -12 20 -13 -2 -31 -11 -10 -16
-18 -11 -17 23 3 36 -2 30 -11 -4 -6 -11 -7 -17 -4 -6 4 -5 -3 2 -15 9 -18 14
-20 26 -10 17 14 19 -2 2 -19 -15 -15 -32 -16 -23 -2 3 6 0 13 -8 16 -14 5
-15 8 -19 64 -2 19 -6 40 -10 46 -5 7 -1 15 8 18 13 5 14 9 4 21 -19 23 25 15
57 -10z m157 -17 c-8 -12 37 -67 51 -62 6 3 12 -2 12 -11 0 -8 -3 -15 -6 -15
-13 0 -81 51 -81 61 0 6 6 7 13 3 9 -6 8 -3 -1 8 -8 10 -20 14 -29 11 -12 -5
-14 -3 -8 7 6 9 4 11 -6 6 -8 -4 -3 1 11 12 22 19 25 19 36 4 7 -9 10 -20 8
-24z m-38 -14 c8 3 11 0 8 -9 -5 -12 -9 -12 -28 0 -20 13 -23 13 -23 0 0 -8 3
-12 7 -10 4 2 7 -2 7 -10 0 -16 -56 -16 -72 0 -5 6 -9 8 -8 6 2 -2 -2 -11 -9
-18 -9 -11 -9 -16 1 -22 7 -5 12 -11 12 -15 -1 -3 2 -6 7 -5 4 1 6 5 5 10 -3
11 0 11 22 3 14 -6 13 -8 -5 -21 -15 -11 -24 -12 -34 -4 -9 7 -16 7 -24 -1 -9
-9 -12 -9 -12 -1 0 7 4 14 8 17 6 4 7 26 3 69 -1 4 -6 6 -12 5 -6 -2 -13 2
-16 8 -2 6 3 11 11 11 8 0 17 -6 20 -13 3 -8 12 -11 21 -8 8 3 15 2 15 -4 0
-5 10 -8 23 -7 30 3 29 2 16 26 -8 15 -8 19 0 15 6 -4 11 -1 11 6 0 7 7 2 16
-10 9 -13 22 -21 30 -18z m144 1 c17 9 30 14 31 13 0 -2 2 -14 5 -27 4 -24 4
-24 -18 -5 -12 10 -19 14 -15 8 7 -12 -19 -54 -34 -54 -6 0 -8 4 -5 8 2 4 0
14 -5 22 -8 13 -10 13 -19 0 -5 -8 -10 -10 -10 -4 0 6 3 14 8 18 4 4 8 12 8
17 3 22 5 23 15 7 9 -17 12 -17 39 -3z m87 -5 c9 -12 8 -17 -3 -23 -19 -11
-45 9 -37 28 6 18 24 15 40 -5z m36 3 c-4 -10 -2 -14 5 -9 7 4 9 -4 7 -24 -3
-18 1 -33 10 -37 13 -8 18 -24 16 -55 -1 -22 -21 -24 -21 -3 0 8 6 15 13 15 8
0 8 3 1 8 -6 4 -13 15 -17 24 -6 16 -9 15 -31 -7 -14 -14 -31 -25 -38 -25 -7
1 -2 10 12 22 14 11 24 27 22 34 -2 8 2 13 9 12 6 -2 14 4 16 12 4 12 3 12 -5
2 -5 -8 -12 -13 -16 -13 -19 3 -27 0 -21 -8 3 -6 -3 -9 -12 -9 -10 0 -27 -3
-37 -7 -13 -6 -17 -5 -12 3 3 6 1 14 -5 18 -7 4 -9 3 -5 -4 3 -6 -3 -14 -15
-17 -17 -6 -19 -9 -8 -17 11 -8 10 -8 -4 -4 -10 3 -28 1 -39 -5 -12 -6 -18 -7
-14 -1 3 5 -1 13 -10 16 -15 6 -15 4 0 -18 9 -14 16 -31 16 -37 0 -16 -59 62
-60 78 0 14 -26 13 -49 -1 -10 -6 -10 -10 -1 -16 7 -4 -1 -13 -22 -23 -18 -9
-28 -17 -22 -17 6 0 11 -7 11 -15 0 -9 -6 -14 -14 -11 -7 3 -18 -4 -24 -16
-11 -21 -12 -21 -25 -3 -8 10 -14 14 -14 9 0 -6 -7 -19 -16 -30 -14 -18 -15
-18 -4 4 17 34 4 26 -18 -12 -20 -33 -20 -34 -2 -31 13 2 17 -1 13 -11 -4 -10
-10 -11 -23 -4 -22 12 -33 13 -27 3 3 -5 -7 -9 -21 -10 -22 -1 -24 0 -9 9 14
8 16 13 6 24 -9 11 -9 17 0 28 10 12 7 17 -15 29 l-28 14 25 13 c22 12 23 12
10 -3 -12 -16 -9 -19 16 -16 3 0 10 -6 15 -15 5 -8 15 -13 23 -10 8 4 12 11 8
17 -4 6 -1 7 6 2 8 -4 25 1 41 14 18 12 36 18 46 14 11 -4 15 -3 10 5 -4 6 3
16 15 23 l22 11 -22 17 c-21 16 -21 17 -2 17 11 0 17 -4 15 -8 -3 -4 -1 -8 4
-8 14 0 33 26 25 34 -4 3 4 5 17 3 12 -2 29 -12 36 -22 8 -10 14 -16 14 -12 0
4 11 0 24 -8 28 -19 55 -10 80 27 9 12 16 17 16 11 0 -14 67 -10 83 6 6 6 7
11 3 11 -5 0 -3 7 4 15 16 20 21 19 13 -2z m-363 -53 c0 -5 -2 -10 -4 -10 -3
0 -8 5 -11 10 -3 6 -1 10 4 10 6 0 11 -4 11 -10z m105 -11 c-3 -4 2 -10 11
-13 9 -4 14 -9 11 -12 -3 -4 4 -15 16 -25 12 -10 18 -18 12 -19 -5 0 1 -7 13
-16 12 -8 22 -20 22 -26 0 -6 -9 -3 -20 7 -11 10 -20 14 -20 9 0 -5 -5 -1 -11
8 -5 9 -15 15 -23 12 -7 -3 -13 2 -13 11 0 10 7 14 21 10 19 -5 19 -4 -1 6
-13 7 -23 16 -23 21 0 5 -5 6 -11 2 -8 -5 -7 -9 1 -14 8 -5 3 -7 -14 -7 -24 2
-25 3 -9 15 10 7 17 19 15 26 -1 7 4 13 13 13 8 0 12 -4 10 -8z m199 -30 c-9
-10 -15 -20 -13 -20 2 -1 13 -3 24 -4 36 -5 48 -10 68 -29 16 -15 18 -23 9
-36 -6 -11 -7 -21 -1 -27 5 -5 -1 -9 -16 -9 -30 0 -32 11 -5 28 11 7 20 16 20
20 0 12 -53 36 -72 33 -10 -2 -18 1 -18 5 0 5 -9 12 -21 15 -20 7 -20 7 -2 21
17 14 16 14 -5 4 -12 -6 -20 -15 -17 -21 8 -12 -2 -12 -25 1 -15 8 -18 7 -14
-3 3 -8 -2 -14 -10 -14 -8 0 -13 4 -10 9 3 4 0 8 -7 8 -25 0 3 14 29 15 15 0
26 5 25 11 -1 6 13 9 33 8 23 -2 32 0 28 8 -5 7 -3 8 5 4 9 -6 8 -13 -5 -27z
m63 -21 c-18 -11 -29 2 -16 18 10 12 14 12 20 2 4 -7 3 -16 -4 -20z m-279 -7
c8 -4 13 -11 13 -15 -3 -24 0 -27 16 -15 15 13 15 12 5 -7 -6 -12 -9 -24 -6
-27 3 -3 1 -8 -5 -12 -6 -3 -11 -3 -12 2 -5 54 -25 76 -45 49 -10 -14 -11 -23
-3 -33 14 -16 -3 -17 -19 -1 -9 9 -13 7 -18 -5 -5 -13 -10 -14 -26 -6 -26 14
-40 0 -25 -27 11 -20 13 -20 27 -6 13 14 12 15 -2 10 -10 -4 -19 -1 -22 9 -5
11 -2 13 11 8 10 -4 29 -8 43 -9 27 -1 60 -29 59 -48 0 -10 -2 -10 -6 0 -7 19
-61 44 -68 32 -3 -6 -4 -14 -1 -18 6 -10 -21 -8 -45 2 -17 7 -18 28 -5 59 6
13 12 15 21 7 9 -8 15 -8 20 0 3 6 11 7 17 4 8 -5 9 -1 4 11 -5 15 -4 16 9 5
14 -12 17 -8 14 16 -1 7 22 24 31 24 3 0 11 -4 18 -9z m181 -26 c11 -1 18 2
15 7 -4 5 -13 7 -23 3 -12 -5 -13 -4 -4 6 10 10 16 9 28 -1 23 -19 14 -33 -22
-35 -22 -1 -30 2 -26 12 3 7 0 13 -7 13 -6 0 -8 -5 -5 -10 4 -6 -2 -9 -14 -7
-24 4 -40 16 -23 18 26 3 31 4 38 12 4 4 11 2 15 -5 4 -6 17 -12 28 -13z
m-188 -7 c1 -7 1 -26 0 -43 -1 -23 1 -26 9 -15 5 8 10 11 10 7 0 -4 9 -3 19 3
14 7 22 7 27 -2 5 -7 3 -8 -6 -3 -9 6 -11 4 -5 -6 5 -8 5 -11 0 -7 -4 4 -16 3
-26 -2 -9 -6 -25 -7 -33 -4 -19 7 -21 34 -3 34 7 0 5 5 -5 11 -10 5 -15 16
-12 24 7 18 23 20 25 3z m235 -4 c-3 -8 -2 -13 3 -9 5 3 12 -1 15 -7 3 -7 3
-3 0 10 -5 21 -4 21 20 11 l25 -12 -25 -30 c-14 -16 -23 -36 -20 -43 6 -16
-10 -28 -25 -19 -7 5 -5 13 6 25 24 26 0 36 -30 12 -13 -11 -22 -22 -19 -25 3
-3 1 -8 -4 -11 -5 -3 -15 1 -22 9 -11 14 -15 14 -31 -1 -11 -10 -19 -12 -19
-7 0 13 -43 11 -52 -2 -5 -6 -8 -6 -8 2 0 7 -10 10 -22 8 -22 -4 -22 -4 -4 10
12 9 22 11 26 5 3 -5 11 -1 18 10 10 16 8 22 -10 35 -13 8 -19 16 -15 16 4 1
13 2 20 3 6 1 20 -4 29 -12 16 -13 18 -13 24 2 3 9 11 13 18 8 6 -4 28 -8 48
-8 29 -1 39 3 43 17 4 11 9 19 12 19 3 0 2 -7 -1 -16z m-476 -34 c0 -5 -5 -10
-11 -10 -5 0 -7 5 -4 10 3 6 8 10 11 10 2 0 4 -4 4 -10z"/>
<path d="M1829 2323 c-13 -16 -12 -17 4 -4 9 7 17 15 17 17 0 8 -8 3 -21 -13z"/>
<path d="M2286 2293 c-6 -14 -5 -15 5 -6 7 7 10 15 7 18 -3 3 -9 -2 -12 -12z"/>
<path d="M1832 2261 c2 -7 7 -12 11 -12 12 1 9 15 -3 20 -7 2 -11 -2 -8 -8z"/>
<path d="M1993 2165 c0 -8 4 -12 9 -9 5 3 6 10 3 15 -9 13 -12 11 -12 -6z"/>
<path d="M2264 2160 c2 -16 20 -14 24 2 3 10 2 10 -6 -1 -7 -9 -11 -10 -15 -2
-4 7 -5 8 -3 1z"/>
<path d="M1825 2120 c-3 -6 1 -7 9 -4 18 7 21 14 7 14 -6 0 -13 -4 -16 -10z"/>
<path d="M1826 2091 c-4 -5 -2 -12 3 -15 5 -4 12 -2 15 3 4 5 2 12 -3 15 -5 4
-12 2 -15 -3z"/>
<path d="M1846 2003 c-10 -11 14 -42 29 -37 8 4 15 9 15 13 0 10 -37 31 -44
24z m22 -28 c-3 -3 -9 2 -12 12 -6 14 -5 15 5 6 7 -7 10 -15 7 -18z"/>
<path d="M2174 1840 c0 -13 4 -16 10 -10 7 7 7 13 0 20 -6 6 -10 3 -10 -10z"/>
<path d="M2030 1726 c0 -2 7 -7 16 -10 8 -3 12 -2 9 4 -6 10 -25 14 -25 6z"/>
<path d="M2137 1663 c3 -7 6 -13 8 -13 2 0 5 6 8 13 3 8 -1 14 -8 14 -7 0 -11
-6 -8 -14z"/>
<path d="M2226 1678 c3 -5 10 -6 15 -3 13 9 11 12 -6 12 -8 0 -12 -4 -9 -9z"/>
<path d="M1907 1549 c7 -7 15 -10 18 -7 3 3 -2 9 -12 12 -14 6 -15 5 -6 -5z"/>
<path d="M1810 1508 c0 -5 -4 -6 -10 -3 -5 3 -10 2 -10 -3 0 -19 30 -21 39 -3
7 13 6 18 -5 18 -7 0 -14 -4 -14 -9z"/>
<path d="M2264 1520 c2 -16 20 -14 24 2 3 10 2 10 -6 -1 -7 -9 -11 -10 -15 -2
-4 7 -5 8 -3 1z"/>
<path d="M1860 1304 c0 -5 6 -18 13 -29 12 -15 15 -16 22 -4 5 8 4 10 0 6 -5
-4 -15 3 -22 15 -7 13 -12 18 -13 12z"/>
<path d="M1810 1188 c0 -5 -4 -6 -10 -3 -5 3 -10 2 -10 -3 0 -19 30 -21 39 -3
7 13 6 18 -5 18 -7 0 -14 -4 -14 -9z"/>
<path d="M2250 1195 c-7 -8 -9 -15 -4 -15 5 0 2 -5 -6 -10 -8 -5 -10 -10 -5
-10 17 0 55 30 55 43 0 7 -5 4 -11 -5 -5 -10 -15 -18 -21 -18 -7 0 -6 5 2 15
7 8 10 15 7 15 -2 0 -10 -7 -17 -15z"/>
<path d="M2296 1102 c-2 -4 5 -14 17 -22 20 -12 21 -12 9 2 -10 13 -10 17 0
21 9 4 7 6 -4 6 -9 1 -19 -3 -22 -7z"/>
<path d="M1956 1127 c3 -10 9 -15 12 -12 3 3 0 11 -7 18 -10 9 -11 8 -5 -6z"/>
<path d="M2030 1096 c0 -2 7 -7 16 -10 8 -3 12 -2 9 4 -6 10 -25 14 -25 6z"/>
<path d="M1910 1086 c0 -2 7 -7 16 -10 8 -3 12 -2 9 4 -6 10 -25 14 -25 6z"/>
<path d="M1832 981 c4 -13 18 -16 19 -4 0 4 -5 9 -11 12 -7 2 -11 -2 -8 -8z"/>
<path d="M2153 913 c0 -9 4 -10 14 -2 7 6 13 12 13 14 0 1 -6 2 -13 2 -8 0
-14 -6 -14 -14z"/>
<path d="M1993 885 c0 -8 4 -12 9 -9 5 3 6 10 3 15 -9 13 -12 11 -12 -6z"/>
<path d="M2264 879 c2 -15 20 -13 24 3 3 10 2 10 -6 -1 -7 -9 -11 -10 -15 -2
-4 7 -5 8 -3 0z"/>
<path d="M1825 840 c-3 -6 1 -7 9 -4 18 7 21 14 7 14 -6 0 -13 -4 -16 -10z"/>
<path d="M1826 811 c-4 -5 -2 -12 3 -15 5 -4 12 -2 15 3 4 5 2 12 -3 15 -5 4
-12 2 -15 -3z"/>
<path d="M1846 723 c-10 -11 14 -42 29 -37 8 4 15 9 15 13 0 10 -37 31 -44 24z
m22 -28 c-3 -3 -9 2 -12 12 -6 14 -5 15 5 6 7 -7 10 -15 7 -18z"/>
<path d="M2174 560 c0 -13 4 -16 10 -10 7 7 7 13 0 20 -6 6 -10 3 -10 -10z"/>
<path d="M2030 446 c0 -2 7 -7 16 -10 8 -3 12 -2 9 4 -6 10 -25 14 -25 6z"/>
<path d="M2137 383 c3 -7 6 -13 8 -13 2 0 5 6 8 13 3 8 -1 14 -8 14 -7 0 -11
-6 -8 -14z"/>
<path d="M2226 398 c3 -5 10 -6 15 -3 13 9 11 12 -6 12 -8 0 -12 -4 -9 -9z"/>
<path d="M1905 281 c-3 -5 0 -13 6 -17 7 -4 9 -3 5 4 -3 5 0 13 6 15 9 4 10 6
1 6 -6 1 -14 -3 -18 -8z"/>
<path d="M1810 228 c0 -5 -4 -6 -10 -3 -5 3 -10 2 -10 -3 0 -19 30 -21 39 -3
7 13 6 18 -5 18 -7 0 -14 -4 -14 -9z"/>
<path d="M2276 235 c-4 -11 -13 -14 -25 -10 -11 3 -22 2 -24 -3 -9 -13 41 -8
54 5 7 7 10 15 7 18 -3 3 -8 -1 -12 -10z"/>
<path d="M2089 224 c7 -15 6 -25 -2 -34 -8 -9 -9 -11 0 -6 6 3 14 0 16 -6 4
-10 6 -10 6 0 1 6 6 12 12 12 5 0 7 -5 3 -11 -4 -8 -1 -8 14 0 12 6 25 11 29
10 28 -5 42 3 40 22 -1 21 -1 21 -17 1 -16 -20 -17 -20 -29 0 -12 20 -38 19
-33 -1 4 -19 -15 -12 -32 12 -15 20 -16 20 -7 1z m63 -19 c0 -5 -5 -11 -10
-13 -5 -1 -9 4 -9 13 0 9 4 14 9 13 5 -2 10 -8 10 -13z"/>
</g>
</svg>
